<mxfile host="app.diagrams.net" agent="Mozilla/5.0 (Windows NT 10.0; Win64; x64) AppleWebKit/537.36 (KHTML, like Gecko) Chrome/136.0.0.0 Safari/537.36" version="27.0.6">
  <diagram name="Page-1" id="Z-WuoE8fgp9xCsg72DF3">
    <mxGraphModel dx="2066" dy="1137" grid="1" gridSize="10" guides="1" tooltips="1" connect="1" arrows="1" fold="1" page="1" pageScale="1" pageWidth="1100" pageHeight="1700" math="0" shadow="0">
      <root>
        <mxCell id="0" />
        <mxCell id="1" parent="0" />
        <mxCell id="bSEiM5JxUbokL_L8aSXE-9" value="" style="swimlane;startSize=0;" parent="1" vertex="1">
          <mxGeometry x="40" y="70" width="200" height="540" as="geometry">
            <mxRectangle x="50" y="70" width="50" height="40" as="alternateBounds" />
          </mxGeometry>
        </mxCell>
        <mxCell id="bx-VykxBwH8emMBWzooi-7" value="" style="shape=image;verticalLabelPosition=bottom;labelBackgroundColor=default;verticalAlign=top;aspect=fixed;imageAspect=0;image=data:image/webp,UklGRoJFAABXRUJQVlA4WAoAAAAIAAAArwQAmAIAVlA4IKJEAAAwmwGdASqwBJkCPm02mEikIyKhJXW4MIANiWVu/E4P6Z4+kfIFScpBwP+e/tnbeWZ69/Zv8X/kP7t+1/zj8K9Gfa369/gv7p/cf2c+WHdR115wHjf6R/uf7v/if2J+X/+t/zf959xf6Q/3H+U/fv6Av4j/K/9h/cP8b+w3sZ+5r6APgD/Xf8t+1X/F+In/B/sp7rP79/wf2l/yPyE/0v/T//f/f/+v4+fUr/er2EP6P/1v//7PH/e/cD/7fLb+4X7Y/8T4Rf8P///3Z7vzpL+uP/N9VPjt7H+ldhWEp+adtbs14Cn5T/Vv9rv7/Z+Ydhf4hf0GvUnkP/fzymeXIcWd+fa5aiHFnfn2uWohxZ359rlqIcWd+fa5aiHFnfn2uWohxZ359rlqIcWd+fa5aiHFnfn2uWohxZ359rlqIcWd+fa5aiHFnfn2uWohxZ359rlqIcWd+fa5aiHFnfn2uWohxZ359rlqIcWd+fa5aiHFnfn2uWohxZ359rlqIcWd+fa5aiHFnfn2uWohxZ359rlqIcWd+fa5aiHFnfn2uWohxZ359rlqIcWd+fa5aiHFnfn2uWohxZ359rlqIcWd+fa5aiHFnfn2uWohxZ359rlqIcWd+fa5aiHFnfn2uWohxZ359rlqIcWd+fa5aiHFnfn2uWohxZ359rlqIcWd+fa5aiHFnfn2uWohxZ359rlqIcWd+fa5aiHFnfn2uWohxZ359rlqIcWd+fa5aiHFnfn2uWohxZ359rlqIcWa3PKvbqbecqoM6u3LhtxZrevHaaqytgDU7u1YVG/LO/PtctRDizvz7XLUQ4s78+1y1EOLO/PtctJA/FnuIzQdhUk1rtfewiYhx49gCsEo0Dgu6j/c/R+BEcFSrQ7yQ72VlHRijRH+5aiHFnfn2uWohxZ359rlqIcWd+fa5aiHFncF9RBou9NNjOl7W+vPVsr+tTTswUEMohBApRDzP6sC3/2cvP/9TfqlpD50CmzHw2LO/PtctRDizvz7XLUQ4s78+1y1EOLO/Ptcrl62ZaD49OnDH7WR1kSmzP2fdCglGHr/7EkAFXuzlnYMxewjcKLwKKXuLO/PtctRDizvz7XLUQ4s78+1y1ENW6Mt1XPyqr4GHA1Y/07N++QPXkdUd09wBgGl+glQrwKKXuLO/PtctRDizvz7XLUQ4s78+1y1EOHMbL4mLIhunbUj4hWiHoaLsJcDDepSNw/WtiE1B/j4fny7SqpoTUc6mRRDizvz7XLUQ4s78+1y1EOLO/PtctRDizuEIE49NjOvOWce7x/XV4GIfD3IN82NlJQWN0TLYQnrdXf+jNrk7KLuAjrMBxyquvRkgUUqrsT7VcumKy9KGoSnjUghs8PFeBRS9xZ359rlqIcWd+fa5aiBNRzKAm8wcemODMqE+m6M2IQ4x+bhWYUq+TtuJDynSZFovvDmYMdhQYe7AhrQPbBWafx+XFx4rv4VsvQw1kLiVLYbiziPsP67pOOxNfSTvz7XLUQ4s78+1yupXYVXoJYtJupkUQ4cCahi9c/6g2nvzv/54heMef5p8tdqEa7JXSxdEFuMpyAhFaIgGfwGfA8hYmc8cTHFCXEzeZV+RXqyjyAifv0F29sIrlgS/ljuLspOv4zX9Oe8HAGyy1lbFPcWd+fa5aiHFnfnxAuwechxZ25tVUPjs+gTgIbrl+qP/4UAEfjzhhn5GY8aaguk5g27YkMAX/1O+30zq7LX/994TMCH5Ci/pZLeiVNUVmrIL80BApTGUoNIqkGqM5JsCXqRZCSJidGLNHAbrknY8JpICf/chvoBhggwu9fuy5jsRN5BW3a1JX+trQn03jG6iD0zBr8xLrAnf9v8L/8tm5j6FIH62XjZ5myXrmyuX7jWGvEZlRyazPuLNgv8g3ffsKFcf2SsjkU+Q+/pThHA/0rO2IHzINeFMY0IIBxdJBfKVnPdoPt05FnXPakRemGhTlZi2oCGNlCCZMsZ2QToxZm56Im3p9ACyhyY9KJ+3g78ab4+QyvphYqehFqVk1xKMKU2HurcX6kawdEFN+36zufC29jKFJM4xFuN61V5/9tmpZpdsUHj/mrC5VmLLr/60tuHYiskq0qqSdoHp/jBhwb9L/jkHRH5ZsTWgUsn/s/YDTuCfPx6+1kHKnDNizRFgpGdSifGJKITWXeOe1Irdkog1c8rIWZOk9yWy+dPBSobUtLRdY/bpN4ABqElPnvYTSe8wDWhXfQu60nee75S0WiMBhHggYMSQwFYzYBL8BDawy541SXovCo9ERru936N8mlNctQemGRqf9jTYvaKnOHY7bjIQDJwtlB6nFGii1H386mcWF3LOBsKxSzYXXdtI3hdBvSONrBW1hAvvZeVcDhHxaxK+jS3gUXZpqv/JteAU70NjuIt3+UUBXXJvRWs2EJfecr/Y++nnr52LMgu+LnK5F1OtzO3JlBUjA8cjDovFNgkSSBHl+sYVqIcOSKx5SA2bM7kxOhHHxSln+hj4kMO+ag/DR9c68yZ0ZGpgAV21aCO0iPCubiPS3DYUts/gwuY/KtR+ynsCyDvMSoVFJ4agIvh0pjtZa44VfMHsrdpLB0Bd57lT4WKuSG/F/mYvHWZveq5c7YoJjm5CHNZoJbJtjz5/zfPGXvLmPzR02CRRhpJ2BJcamUG+glkUIRMFLxZ358GubeiznBjcsZ92JrF9R3gWkb/Sg4D/d4fY1CYv+jsm4hvBuQfXI/oQAdMNbACNqEVU8+63jAG8bJiT/HlH//8J5z9zCS/gfFLdi51pIzdlJ0YPyUzvURGTAK18IhztXTgZNGGBseV/+YBxbt1HAt6aBxY7R8eS5Zs+oU46flbizZ2CjFn2uWoRz3aCd5zDrWKB2Pei8TnK1A8go4ghubySrm2aSPMaDTsWoU14lF1D68gCYhXLZNJxr/X4e7iY6ZCT4Z//kS/3esxFBRSsiiv4BOV4jv6NuwPk8G6SyUuA+Mi1WjW8x9wptKK+6gY6Yn1pS33fKOV9ZtTRr+j55bQExK/s86TtYuTw2zQOM8fgj/hPwRd92ItORH6IyQXOnlbHMYXss4Rb9JkqPFeBRS/YL/AI/3FcZ9nRzpb8bagPtRvJoAQURV+PsQlTwuh5xczxsEjmvsQGvd3+bHxClbQC5sK+YZ59riy2DTgTPHbAdnWDP9I1SCUVP0ZjN1tye2QjXHaLMVD3paPxfX1+WHK/+8c0pPAp1KTATnEL3cgEcLasNv0fxNUv6j5Jf6+zDXoVP03oRYzU+/v+NAhX/h7zTVTWvUCNlXbPZ+78rcMxppT4IcWd+fawjiAKPyh0A8ObBaNV4wBJNmkbYuWj1odQA+VCUTBAU1i4fYaulXJy+hTw45o1IFFKto9BwNDNqkKAVXEMnC2o0lpW8i/vlZK0eNOfLiHKSfTBBrH/VmFTvQF1F9JV8ng1ksS6m2SdVIl6rce1J+kmlnT1cPUua76ZaiHFnfW2wD0g3R+FTxxZOQbplct/6j3pPXNAW866iuc+qJKUlM/slKaX9xZ359rlqIcWd+fbGezv0NVO1FP+9WFFL3Dj0DxoqjTl9YraB1zt1kZzeIUrSfMQ0t6n3YHBBxZ359rlqIcWd+fa5aiHFnfn2uWohxZ359ri43RJT4sWhJzUilKkuz0IE3NLWdyHy5C3RlLQV5k9TFWzuqNCjWHIK0prlqIcWd+fa5aiHFnfn2uWohxZ359rlqIcWbCkU8XckdiFHsFhlDbZ7OjPyb8yf8CLTh2V5/qMQTUtmmAeTqfNi0o8tLfDsil5AYNpgghBLsope4s78+1y1EOLO/PtctRDizvz7XLUQ4s77GmQyLniZBarNclzvi//Ltrx7zx6ChEitaUhs5dGNUNWbr+201fxaAXtQUXgUUvcWd+fa5aiHFnfn2uWohxZ359rlqIc8wC3lSVLWieOXIcXLP8aUlD7RyWohxZ359rlqIcWd+fa5aiHFnfn2uWohxZ359rlqIcWd+fihtRDizvz7XLUQ4s78+1y1EOLO/PtctRDizvz7XLUQ4s78+1y1EOLO/PtctRDizvz7XLUQ4s78+1y1EOLO/PtctRDizvz7XLUQ4s78+1y1EOLO/PtctRDizvz7XLUQ4s78+1y1EOLO/PtctRDizvz7XLUQ4s78+1y1EOLO/PtctRDizvz7XLUQ4s78+1y1EOLO/PtctRDizvz7XLUQ4s78+1y1EOLO/PtctRDizvz7XLUQ4s78+1y1EOLO/PtctRDizvz7XLUQ4s78+1y1EOLO/PtctRDizvz7XLUQ4s78+1y1EOLO/PtctRDizvz7XLUQ4s78+1y1EOLO/PtctRDizvz7XLUQ4s78+1y1EOLO/PtctRDizvz7XLUQ4s78+1y1EOLO/PtctRDizvz7XLUQ0wAP7+syAAAAAAAAAAAAAAAAAAAAAAAAAAAAAAAAAAAAAAAABDdjb/dv60z21DHbaAd1J6vbIaxjecfXWKpfD9KAebDaVdMYXo6WIGssfNnbpx4vLZi83MTv+vnQUZAzQ1MyevO3PqJmhvAaxOVrRBK73DvqTuHhntF9gK/sz/p8tEQ08sxYyL+UdjtTDgCXtWzms1JQhj0EEX2I5nNm2sCcFLsBmre8u6qrkgCFy4ry+EgsvAEhCkecNkZQK0kJsPAsBtEbGnf7LAC6WkXt9wM0sNGTZu6cWxoFypAdo2epA4SXu+phrIN5BCzjXjnwj6Fh5BYrwmbGAAAKFw4o9+GkGEOQTNOqdobeJif58BDAQPFo8vvs1A8kmKgPTTHsoUhb7yRnxJRejo0sEWnbrKLaY7aY1Z69B7BXpMv+0Tkkqo9StydsVd9xuOqqNeTuRnAreFEe7LQZwt4kbaGDLpErM/CuiCUWlCDBQaPSV3CPp+TH+yNt0r7IK+gu/5ehkmSA26+vz9rLJJ02+tlr18t7CklV4b4rJRbxdZi81a04Qw1kChpqSQjx70mCffCKrhFDTilCZ09x+G7zd0J0TJK/ag9AcsgZTKcZOWEH9Z8DiXBsEbP7n0wP00WZXoCKpcaORykv6CryQ/4vinp6RTDnrtQEDkphkdMn/HiMo7MUXtEDpN9ph85c8pc66ukojz7/6DlnJC1j6RIx/Zu2xKDV/G4IqjpsO42a4HORzlGQFhx/2fkYtqQupTywjyZ/umgPQ2OG94uQlLNM3/qWLChwYIwofrKN7NDe2zsNmntLi8PpJWWepR4BtPwBl4xFkwM/aF1y20Xf7uzzyEZ+2miXkER0v0q278a2TKQ48Qbgr4SWo8atXrnEAAGEvhYL1XjfnV2VhIY6FilAlwm7NdS8IqjpMoTpMd+TCb+U5/FoJatFy4UT1Oij2y0Um+UGkf/dviAtl5V3M26WE9Sx6lpI/N5NMDh6h0o5WvMdClYs/wgzzFoVSs+QZx4DK0I4A0lVLN1yCBUND6ZNSuXAYMXdvh78g8ozHfzxZiTNg9NqJfCDs/X7sH6arDHn9h+9ZvYopJaNcJ8MgFbLXx0TQHKknZioW8Oa3Uj0OHo3u/GBiS9lRSAJehcp4cEDa2JnLIsWSHSfYlPW/L+uvc+sprPamDFe5iySQupvoVisjiU9xGSMlkfNNOPtPTlW3dSKBg9T5xAmBUvnsYqkspCMITKj1PcRP7fwXejd2L4GmRcSLPnXqNw2nLoYko0NpbiWQMHP3+yZxxwUS4atof6Yr3yk25uRe3Kn0AF2rA0nD7bKs4sISM6hSQ3AqUEfNOPw7XsQYurs2BsQJC7UUcdRXZMqgxeDwrADDi36W9UW/d+FTx/gb2weMJOeUAlvIEAAALA5FRkDdG3+Hroe4d9D7qfARMvFvBRB4UnVcoQYzgTMIjuUBmaJIjxjDfTUYAsb/7OBMfOECAyw5Px5nAAGmX0yoniDmgXQOFzA/zHSTpGi8varPXvwA3/J24SWdTSia70BfS75Y/eXGGjtqS5epYoe8h0P1bci7EPur4igmFql8xIIEoZomGFYHUv5T8TaB6w0JRhnkoTAej5fIS7VuPQZ4cPpZpRfBsBwPePNYGNHjLRTcj2HEvgVaqc5VxwpuInaMJKmHd13q5ZAAI53lbXGvpwDGCxaNt0ubI5qIYBdOzqd4S+NbX/8BPITV9ksY4TCSPIXEQm89fv6ADdhGJNdI3gzAAADNBfxdZJLn6xBsPPc8wJMrKs3Jf6kP5y5bUpu0WsK/JZFpNEFKchClPg7QEivURHo802lAwv8SMu/grvcebkcUDi8aL//iPpoSog7WZVKPERrrNVJa8i6jgAj/EZ5vu8b3zoo6YfhHfnoZuAQWOoDDCOERWzl2xfAqnSN7f8qMqKWFYczf/TCjBgXqHDwJ4sq+UoqiJlEPnhaErogHsYSAAAAKTtWktL7g7Bey9/GpPjSNdJJTT8uB6S097psj9fo+7IHYc6ZWKVQTl/9N+pS7njAnomKj+cIfO5YF8H0mmxyTgxWJVkM+WIdO4rdhMJwLPz9iWuw1YaLhh+FFN92xD0Uk/qBeIVRg+N0mcwHmHhWz495S8s0RdhYhgK9Q5lL+s1X90p6MZUDFUaB5Ox1zYeLlcMPKGddhfARcBPHeO35TCRSad0UY64FTSxjDdSc6iCs5ae3/cHMb/ic+GRRDpNpv/5Saw887TfynCPs6RwJ89vtgjAQ4go2NKefjs7pbGgzxXfTLthsBX59oqVEoVgfYPDJvif54aSn+V0X8EjxUM/Q1BEYDtCAAAGZNHpGr5druKpWgAvuwSPsw7ESUgnbHOqXWj3xXgBfpnVhW6WZsuwUK5vPtfrCf+F/rxUdoFy0xMhj9fDwAmr87niRyybOfa/nex6/JobNKqtqwrRhVHz6DHqXya/33AG/xC1EpIHAWDsLwTV6iIzkE08ileqWktsuVwMLM60nHOvghrIn5kmH0YacT2yIGFTDl6OBp+9lEC8YeSLYXqI7yzilH4hazn9mgbZ1FtJGbpaQYstFmGPy7YpoZ8zituFHoYeukPw4DmZmWYiKUCi70sOEwXmRhI3Xy5aBIEB8Go5cFsMa/pNp63LvHKDZbEt/LZaJXCiR9kLRZ5aoBU0/xpIhFn8VYkxWM0F8dpiu3nEwbY8LFUHgclh75h68tlw6Z+8H8+IVTXy5b3M9Oj1dLx9FmSqfBEd34v26TmY+IaK/Ld6fyXoankMvK8c/8L6SfSItblAxqYHxe1+ww/dI4Pl07+pN/TCyySe1NVUmSZqJqXq3/TteIvSMUjJZzcpkKKoHvhMQ9JYXJp21OIEArlQH5lB+SyW0hsgXQFm0dQ2wcXX9pN12HRmrPOc3NErx/C3bkOVuGs06/hcckqFLAf4IOhPRlhH4T2/ZvoQhY623K/S0vRybbH+G1jQE/x4+CHdsSJzZki/lwruueKGAABDNiqtt1ZgmhXj9+gx8e851mGUq5CNqleJg1YkRvL8jZb6bc4flT2m7DxMcw+/tQzUoqsMSbzToOBGhXGQhsd3s5Qyz3Yz8bc08NHG6tJrf/sLEZBqqNU97Ec7vcurJ7E6lHBR+R/29McubVALDinmooETGB+XmjgBS94+s2Fq/4DpyEgRx2NeRqCRpdL3K4QfFCQOfXc/PMQVrsBzYS7VxaVAC5fyRfQVsc0mZME9aPP9of776PXJExsqWEDuTrt1BaZXMQCeVYOkTE+ifpLZ8HtsPdk8zrW78JV33zljseLOKRZDeDG7hNR90bcF1tPdf4YLOx8Ymr+lshhnj/ST6hazW5V1kXLQ5M786+fu4vAVYGc60+sDpqjI50Vz0GtqOgbgmYAPIe5jc96gSl1JYCI05NZz+KwhhexXSXHDMusI0a1MKmbmjYFvcyja1XDaSZa0bLFZKAz9EUGK+aUa+DPX6NzxD2ZhKUI+/hZ15xVTHQ0evY2gxsbHskfE5aMs2M2S5rDNilbLbXuPwDV+8n4/mKjLSVpTV+O2OdITueeUPmie2BSuqJAoHLu+VXhBMzcNZfMckcnQv5N+I8/vUO2dVKQxBwG8afSClW8sbBEVCRRriXDuHo0vCIR+5KvGQJwYupwtokodUL9txtCNseV2Z0Q8tU1lS0/LAgyTjZcjXye3dm3YPgoSG/BphZyeBjL8AIESCIRnEpYqbeZrID8Ys5hZHgZLfhVsDYdTY515CKzQkn6rhBBhDWImG38uP6eWOkCRqR/zOL7zRdaLIXmlkEF7o1ThRLQ7SCBmEmhJJgvm8qBFKSJTCPycogsxJH/F148SbeBCi2W2niOHr8c845lxD12oCByVpakbio9UOcSDb8M88bYgB8aL63zYAfMV6wg7HTlvf4hcEKaPaUcKPbetCWkjxQEaUmMs+UtOHmS3bxHQFFKPX3akDzcMc+gmDnMPCFENSJfnbAdbtsMrXXaqTWML6HwtvcJboQV6AxdnW+U29hi7eMvs8wkJD7TEDVtFLgWm9FbGnTEYuFBuGkmQJvwaN6Jfe8YFSm7bdrfP8ny97y9Epf58vtUqw02FEHly/xlm5xbZup6Hjynts4XhNGXZiD1LbQpg9HXkE0j3Y/r6yzjTf/w8eY5hJKtHaW9qcp7QIAU8qnVGQTvJyDQhiaD2o7Dp+lR9bCbLAsSTcKGbo1k5EtVU5mGHDgJ/7l8USgM1u9cGCjl9NQFlhxMm6p7G23feq240PvTxjqcuvbgtcoIgbgYGoCGygHgYih/37ZfB6D5hiiFQPHLBbnYikRR4d3Z2WgSJJbTMRK+/FlqO8Z9w9VsYMj885dUnbw838yt529QTHIPw2Yr9zd/lqIiRwLozCSyU4BMo7ZZrYWF3SUCeCrJxfAAZ7OUb9VJ9Ogob5mumCdGIfds5qA9Yqoy7HUNF0gGMpkl8qtQ/v+TGK0mzPIUaE7WI/WejRTP6eEuAwkeKJ//sshqIpHHuyty82j2WMs7kNnR3y58BHz87fkkdLofXXtRj1r6LcjTigPQpDPtD0V69hW6DAVxMlw1ADnagQhh5nuwmaq2hO+baKpAciMAUYi3oTaz2yP/mzfwST+wUk2oSb/5P8fOdJzBcCX5LBwgRCNjfjWmDPlvzl9pSaHvOT1fPEn+sd9Rbovzrl4kUgVlViswSJ1WCsmYwEYm+f4PVhjAmvog7HgbknSKo1Ijwe/y/Eeec4Xrv8tojtdm2v7NoiJcPWov4yVj/c9NHivO10RZUP7j0jMjbcjULYWsLBQoeV7iM4daqqNIClhvev/8CefgI7JlgIrbWJNFHakPq8a6jT45rqMwrv4fFbTYzwy7K2OWeRLb/HEZZAyBaqTQpxq0lKbuQmeyi8gonPTH4QJinxNEA8NgnUkrHcBARkHcv8E27H1AvHY5ul58YpiWoBSPUb6u8xxpWuPuqWj9Xf2seZpTEAiA7ABq0h7KWO0VckyWVRDBWxHBiec/k7iTdVJqPUzNOgE8k640avz5M2fhYF+1/hqnDpTw+vlWUs5QGqnQZqHU1jA3FBh22aoKL8WsJ+5dpz7dTsXJ/PDJxKI9SOWBZiUxwVvQInoVKX8KCkFu+Hbahf13VgdvriT+/ygtqSB+LQYgd8Cv0RoYec0W1yJFYpybzZUj+Nhkenc/Aoly0E3JPxMoViZdkODbVfmwi9D8CFBTPtPh6q809e2/axGKK09j7tdd31GhJ92SYUA3JVo5O1+cOXhM+LJTrqnWDQMnMfuUIM6uBPAQCtAxnWhCrGZkJw1h0TXd9JLyAey5hoSY3cO9BlujfGGgDgtHAwcwqbqa21z9ViiW5GYpeuJEmKGfboNWd5kzxLNroFM3eWkHTbIHZznOK+fNiS2iG6H4XkZW4k35+sLfJGmI1UTZr60OXRcLA//Kdo4t052TfTbgvKFKKv4EZ6R9l8+xJa+QtgJ3BMkU/H42BozvZSn1BX+2mcHe9/jL+vvjflFFeM6I4DEdq4LBZ58hOdGu2s7LXAoP9Nw0CMk01V7crEe4eDbOqe+cqXPT44ThiE3xfuBwkOxX51RfpvDr7g97AhjdOk+j5uiXOfUDNz5wxtqCEJd/j4gUhzY8+qetQaqLefI5KQoeI0F3Yj7fj3Yv8Q4TVaRbI5439KJNbazaIRPIp/9+/R7Fr5Oc6tNxLh2/+rG0WxBLMZz4LFFFQL0t4h2F3ZTAO8zAsHr2OfXW94f8Q/TYz0PLML9ME6QKmYZJhnkyxoUQFdsZMgBbkk9NUOnUuhd9ozZRNib0YL5UMZrz1YoJ8mwRNcTip3OzYSZrfCaCC/wvkcCMA/UWRRGJ9i7J7PdJhMDdx+BbjCCCpkeBjrHpszNgcR4PdeYV37EOuI9dvH/c+JJ4m3GT9FsqUrLvTMUVduXtdkfBjfzPXHGVAkYikoN6nT+l04nZ2i6Tg0ouPpMqWiiYecPqxnpns5i2/Q1mqfFJTTKOwSGEfSUkD+0yBeFKTPvcCcPHb7Hv5xVD0/bk9rriRmaI8EMRs6qTScs+YzoeKppqEX1qRVWPlRp5ZzaiLPZ3HBPnzN5SA3n9fl+b/PE4VpdSGZgAs/Lg2CNIw36O96T/yXCRFpOlmd09/kCTl/KD+iA+WTdA8KBDvOdYHf3gcAOArREqIteGTuTosLOkziD7B1Mm/M2qPHQ8Aa5+pZ2cDYKBwcWxGtToviiDG1SXRCssudqsUZCifazh4x9eGPkB7apLRr6GzMnUU7XduhlxMzTl3C4dnrG6VB91o6ibBn+RbjpGNJ+Zjrs9Fse10FX8sDtj0iRDaBPIP9+XYllxOu5aDBnNaIevOf6Np4Se2F6/gu3NMxATtCUQENO4S2+6H3n+1uw4twciB5bpIZtpzBSJKUm2n14y8us+BzV2geILxffA50Ii/bJnCzZU6mbWlBFJDoabD54a8RO4ubwl/CuGU70B1lEBYS9/YQzjOkq11WOhmNDzwroQGtYQvzC8PEoVaGu7bQd4MuDXaD+WtxqiYoCdE9Owf0QwAA1cHGQQQ+Tm+r95g2j7IuGBeJxsK33FIAZ6CaX7JK5H5Pp80MfeNmZJbvr/7lAsnhObOSnPH6qlihDmpbXRATnkIes7e+pF3oUvJS/Wi9s1UKeEwc1zyEbjiP4kwyQXCNTrGtHjU4eBBL9Y3qbid01zXxjBw3aZZsUJzTEP2EeTmHTc0BaXwANIB8+Vxkq4OJh7LawMSXVW+ayyeg6ynStSeK6kjSd4hNoWlXgrhlcRZA6u/efr2XAXdmnT0WMgWlMHZaQdd8TBLcdqYBsP+e+i1DY02GMzlzzqoIKYep2THQvocRqHry+/uO9AixPoF7U4IIYK4P28o6b0x7X05bNA5rRm9TsL3CeZlRi1HkS2fPSZSSvG0hYymU8VO4FVEDbhjLSiFleCBvDGVkSf3+E2F4ILIdthevIne6wHCOZPsYgiBK5vWgBsZUcX9pv+zVCZByFWf/mhVOwJ+GFIMHndTwC4w1y6L01P/8Fqdd6LJDBeP/fmq67+1LGU6/6p/OA3p1SlY7wo9EWT2byIk+gYwD730/3plBl+suS45hX3VscHIzcWhNVpq+dFI0yFaqF4HtqHEp08fNi1y9KCBX3Ra0B0NPFVTAgN+rE7QJsiKie7uPLQl1uxx5qoFCK/LJyT+kZxlUtb/w2/ocDvbH/BKQTvy/tYFPiz/DIHGFbbNyAxHm155JVDPiSGZhmtWGaj1MZtQd4Cmm2AU1N3tiptJGyMRvwPtDsyt5h4xXl3ehC0AQMAXl0ytfiTj65piwCB4sF2OBfniVSCwHIxl5sv/mbmpaf0aVx+cGnhnMA0TT0TOxlpGS+Cq0rZGsn7Rx5HViH3x+nMeCNi/Nz6u762mUpeMTUuBLyXenit9Jn2Syr3yiCCGSpsfo20Vhw/8ybSHiYlsDqx7237VIDOZXeBsp/6rAOFlCphWJouFtvdi6PtMbLs9oynfdCQPVviZnzeWIHvxbdiWsxOUeQbLvwPXTOiBg7V3seGlb5b6IsftvMz8xyXGHQUqOjLioWHA0/2z0Xh4sEPUTMMP/rpo88Di26OcDl84WXYagxWqIdEiCPZ3ypChq5RQ8GkP/jTlIvk94zJrx3faJddx8UYWC5j32Ie1HyAdUByVRik0vp5RQIfgwoQokhcIQqpW18GKMdrgK68swj7w2fCa/+wX7WSP+sd0m5zLURryl1M+Q993e+NGc/1cydLcQzfjSCf+OryD3ZI8rEfWW57bgnnMeXHWMuPgZo0Tir78Fad0yrzx/6jkrSSsyV/bNuTBbkUTbjgCz1WPq0z8WW8dkTkgroFEwYMv7Nju4F4dgdpKP4uKQC+/HFfs6SkMbDDlwShMeEeu13L9s3pDkrOvx2yX5pYkbzju2bOBxotPg2zRQTsk12W5TpCKlFFVTuhtb6HmapH0sjp+PBvI8SeWpUtB5CmgPUM2+YugvodRiYjcpslt5/+1MZMNADbJ11sbIdsXJ8PBqRvsYrPfEkpr0BXsBg5Huv2a3A5EykYOW69jJ3cy3lfBVUnmJe3Xwtd/5V5OhpUlLhZtKJMFu/MbG8ALqFlUU2g7W3zJxBOusUdkx5bA8Tn0tXyqH7IUOsSkvAVSzsv7prPvyOSATSScqWUzl+8EM927wYFZUnxLZQ7aQANDgno3Qdfg87J9Hxj+EcDrPbVSSXWEHHmLwuxrOR+iIANn2ZGFtq5G77KteyfKPJAbT9bcL74Fa3v/BI0xn6wajn7zfphlYC3Da5BoV9woFljUAod2C1WFOL0hjj67N+XigFuYdZS1IU0P4kRxYA9RBttEJWm5JMQAAIKmbeOs2TTp301tVsILowVUkcx0o/+RVdUcH9cjQMnnOxsFoOfUUCVeOwJMXuCleWrofuJxES8OKTtSCgYXoI0tDiE6yWZA4Okr6nvyHL6BEskmYzIYHYGIJDACbRkkR+q6kvaH165kkXk9Qt2hyIIQIIFS6d6i8AlkAS12MP8SOMGEsVKoPea87lNjH2NzasC+cLbLUbXA93mDEzDRRcaK3psK5E+kMM348WTLrI6OsA4jyf+VA80dy6HQr+lOS5wZ2GlYOzCCxbX/AGOgCBYUWTvP2cPRf5CyfnjnPAOkYEKnE7l8T2eBXpCG0H3JrTd5Qv4N4NAHgjiERPMF6MR3AOgYdE5MBGJn+H7swiF8pE2dye26JNWK8gB/BLQPXJprQsa7ErK5yM2z/s1r2++T0F856YkiBN8QVu36tdqOII4Frm96VV5/2d2PO4GBij/3ntTkox11y3NTUUKjPSauws5rVOyaPyhcDolyAIL5KTbVbhr7skVcJiWGwd/tcy/VzEBPUZEU+vGUXcxMrV7V64WDcWWYdR+mDEZ184OkdrcP7yNW1QEVNI3FKjfAzUH/6S8S2Kux4Xp7DW02UQvFXthl0AlKc/3PVsHKlonEMTwABB0SOKihYIXEihFWbp6Sx1lAg3Z2GgfOsE0OePzLsKrZ10aWOGIb6t2s1mCBmKX9v5KZEHpkEt2MDjyR2QGBqcem14xU085wiDnyPpcUakJsUAcfTWYAni2LuMZsUKPz7mvhENpqL8A0eQWlXqDYize41+UZIlXj/uuo43u7pENo0rQBq5BECfsFXgGymwV/Ymkntd0/+tUdMpv7hU4WEL7lDgbX28pIvUWAoENS37E5hKCzLAAkv47qhyz7NWcl1/riNpiNgKzcaKeJHDIxKDZKZ2U5uAUi9z0oHyqIY2YTW/mNPqjL9R5MbpwQgN+KBKA5VDVJlTeA0Wi2HkdRHPXgFGNaDGyoqvnteLmTrFCDv+QlDrvMHCPQ88XEhr8SKnzlZ47Y8OF8MTCf0Dy+rdoJ0SfkvXSyG2Y58/ynFjQIwPi6OI4aOzNif58BD7pOougvxzclgBzWdwpIWS1nkWUI3mA9DNr/tVmR3alGucF1i5A0Esfj/WaAGRU1fhSgTM8cu6A5BmUkiH8MBl0p+PlqGdHjLkGEuJy6BYsvQx1AdoRvKZBchRIx8GAbG8y/smYNrIyME1+HJ07b0PxdohmorDFsjCLg88j/fkxL/uKEP1xRFRNFmxaItBc8rL8L8cDIVW1eHIeCxsGfoKp+s9UIlsk0SVV/AGBUhqCVY4kPannRALqAopSE2uVxEXNACjAjW+QPJc7r3Y3NSRbw8mk6u6aesYxde+hQuhZQClktKGWHVDwgKTtJdVgxyGYW4ds39ArA97m9BybVTyKpPk9m+QnVD997WqEH43RIrePN93+D2MzvjGeuDtxQFwRLpIrtZBT3EDnZCKIycZt+1XrHINFLdo3LRdEoR+coRvqJQ1fYrfcKTfbWlVcHBGD7Eau7y/gLfSULFJV3UpxN/uyKkpaUWtw38jTPs1KlZ9/5ldpx1v5v45ZJr76xvIdmnqYkT43Livtri53pK7MMgeL2tq7PPkzKkZ//uqIPyA3siwcVISW10rg47PPgF47cg3XNtboWSyLKlvYj1I3PATv9K6u9x9e3/ZcCW3k4yAz50R5mUaYoCj86yfgaesuCoffDICnP5ebyAZvuzDi4zflnyKnpoD+VzzR3xARrVtRoOskJOTxwlarNP1+uluF2Eg59uqdmkc5vA1NzE0cRRvo24KtBF3seA7eynIT3PFiJoIvXSP8ueLR+2U9MrUyUl4NT/1QFrwUtbU/YQsf1bZVHaikl2f2o56Role6dA082p+8IT6ea4pTE/2qrhC2au8sTt56ljoFGhF7tC/L8uFZSQJZmBTBZfUdBJMYmujCvHYSrD/v1cHDIV2+MuxY39dCfK1lcpWI3PNg5oRV5ZXvyfnNI2/P+Uup9GxSpkZf0WWZJ/V4UwHKneHxqvN3shyVkAvUypL6iLchvuHix5ePzb9FOhGbUX7zrjJZdyqQUN1Qr+b44z7laYwAh3qLT5u0c89DVIa9VWSxU4nwoVTEod4mdLz9dnY33UfL+Gdi4bGCQlJgJeNLcRyLaDWuCJAGeKEh78vgXPD8ah4uLWSibblw+/B/buZp44TnVIvcN5OtNwi6bzxtwMs0JBzbPDzLUXF4IsxI0BZLAI/BUY2KTunrqlqBmBzfJzyA2qizV1XDVpJPIZXdUUDZ9g/6OxUtyiOShWX/IkIPNa6fLbjTZIhU4V+xY92AuycDLpWnh1KeZ4k0ze5yBMInWgfWD5p6nznazOnkXlyFUpKvGrdsHda6LZErxs4kWOK5GpO/POTVRkNPmZ7w/ulvhS1Nxg7ZWm/Q+H7iP6RZ06S0CNuev8mq21tpd4rAjnbC6Rsjy/gHpyfFFIwBR38xGjSqJtm/BSb0N8eR1phoHg6bnyu3zxfMvobZP3//GHSeb5VuysnWni9dr0eiBfdw5MveV/vph13FBiy3vFNC1z/bswJ5Dlf5bcLvpgMOXpPeJbTVI8bz+4bvJPbMTlQg7Ml4bzPYdwoq5qcCwnJcb6UEOGDFM9MNrwPn6lXG7e/Cj17xw9yiGsbFUsfLg94PZClshySX8922cScCZxJX+RrG1MRzIVaHT6JKstyAKC78iM4v5TQYB7b7aPn1MVSRDqq9kbMGMUpPvO7k/O3hyiq3PJcz5F7dBZqBVQiTdB+2XQeqFpGMuIUyAlMc8P+NahA16Q70Yq0x9QtUzeFuSPU1X4kMqceWjbxUCHeQjpBUc+dgrX3XSWT8cySWMsZ8MzH/skadDwydrzqPdTbaZ1ynrOZHhasCEp0CUdN6k8UHYJXpnC0A4barxSzO3YDlluUyRGB5FpturPfwG54uwGVNTfQF5utzOkmzjgqN3FD0yys9hn5dcrO/7zACuszTAcLw07WITqX8K4obNDGFSUe0u1Sl0UmqyCVjNnM2fQoAf38NvlYGDdy2m2Psu/hS0EEKw9ddOZe909yfIBiml+4YdKdRYDxLBd2jrfRL77vj3+GU/zq1Jc0VZMY8gdbw8JENMDmv7mhfHZ22bW2b593lBPVn4IXd+eRJ1BneDOLiymdog2n3yjGa9jeJkdPC1aVkQrAR+cIwmwzpADHo7VR/ZgFhJ0jm+0W9BM07n+3o9JkARnZlDF6dRg6UrCfmTpfpNST5Oq1/iqoUz4ZncnjpsRm0AkqTQzcqIyaHO0+5USB92GvBwAbfo6ULen8S6zIfb4HlUFw6nH1wrvLl05Cg8UBF2Hm2ixuMtWYVEMA8geAb8GVkjCuw22BMCxRgmT5NreBbEg/h6NaMtr20wH6aR+Py3v27ltYI91mEkUccWNcEBYWTyVF57+W9C3Eqt+nfs+o7/nRT4KORAd13PBriiMBRmgUE5rfRA913oHVA8cPZrLMecsYfi4fF1JWSTih+Z0LpoGo7OnwePRweEP96viFaHRHpd31LQqf5VY5gRx9PLW513jkvHfOWGHaQ1DpDz6M7bV1OpUKI77dqVwCjpHnvN0przAZYD4tnppQQVDOjvymArZgd6cFto5zUFDGT3W4fud2NHzJ25arsJFMfVebLaqG7bnmnK+kQnFA1Pe04mrw4lMUmh8Gun37Tr5yULRZaSsNprgynCahUhqAO4VSwv8GuYlaBua2PiMP1AELE3RlzcQ5x6jni+s9//zjhwzsLVWpxqAiCY82aF5nR0b/M/y6IVw44kVyKbJFYA4NNjfZ06X7JsOPelQYZXgxZI2w6BvsCzYr5VE4iY9b4AZoILpRe5kg3MmE7gBjAWOdldYJ4w6ntGYi3R5JHLvjqC68KrXB9PbJXwEzn2usw7XUirWDw0hk2JZLhRQOkwb0Oy6BKjnkgftaBhsXvEfcNh2KdF+JrqK4dApRjbiPli2iRw2pBpmFS6ngLTUGUaL9s/S0a/vEO4Qtsgk5cZLjyQrwaKp3jLY1IZCuMZv2H65aNJy/kpAv95K92l0U1MjIWEH08vQwmj843rXmtdNw0cT6p77paER6qomAor40Om6HmuJoLXpln//1C/ha0ubeUyN9klJHFI1b5wMJButtK4tpG6iLVX4dNBLt31uTr2UeFGSpqW0qY4U7HrfRZTPKvnlt4p5H0A+obQdRUvUDhW0mVxKWUJWyMXo+T8mDGftcrA7Q6uUWrdQ+qCoShqLfprH4/XcYd1mwu6WXfdHuWB07yDyBy5dBtaMK1pFAMVDkQFk7X/AGF8XbnTqAJ+78mta+6yzoTcER64W1mXtn8lbKf89PU04lt51l9R0jouakwNOS1eisylhSxJDTnsy4CT3uguvBbjdAMvnG3GU/HFkmXdlobGrowR1h3phox7M7aVGqKYzeF+XSM06CHIpAckvIwwmDYPzBYyyYpmQb3RLZsVl7CThUGW4ucObWY/poQx8oXUiNlR13wFMPRwf0DF9Mi2x1ZaFzIb55CVr39kRxs4x6ihVElNuisVy7wFEbpg3uIQa2jxmFUEDLPbHKRQUHvKaETtdj6xlzfE8X92hW7psLIlbIk9LMqsDiZ2l4eCQxoxac0tU4g+Qlz/CNza+FLukb1Hms/XP57RpVSEgZtZ0rvzWna5NY0yk//7+gui+ClPpyWvbigOQmCbDalBcfZ7vqlml93sGiFwu9ZN0JY4+kxZf7Zuxw7Bgk2WSdd83IFCVuK3+VkeW/gxDZ+EqukGGh6tac5aiZR9WHZt1W3FYl/WLrX6OaH6d/9eA2O0W6IWSE9c8d+V9veCnldjNP3Qs6EtODeBgsHvn+h+Cp2Bv9ACogH+Wx4E4DlAz18y6shIRxL4MQmg6Yn2bEex/2Jc27aGN/BhGKl/JktJS0l01CYT+cOXaqYMVKwX1da1g6hStt/efXISLX50lT9I1iQ8Fh2a6j7HaOSS68X2vmuhfQN9ocK8nb/UpFRy8oyzEivLBXRTubV7hBJgDf3XMXOONIGhp9XV4k95Ndmx6nDICsS58Ybh4jSNAWRkFNjg/Fm/g7B9LaD/C6lR8WILf5y0GUVefnkX0Ip2UlHq4WrWMFFjR70QGW6gdg0S0K51uIuOoSLAZH6resf1+DvVbGQf5pfUifmD1ZjY/aKRhOsDJQrJcUyjYa/8J1Tm0cXfKOaQEq78Jh56EkarJz40Gz8HrF6oskY5TfQ2Z+s97h/hqAA96bfxqe1OVOArURUHKNaIwwG9Jg6x7if1GHj3nBuljuCCwuZN3sdfxFu2jewCejYgkc+/NlIjJAWElTg3yc3aoIpAvIh5qEq/49x/nBkUN5Qa+OQpFtouq3rGsA1vCt8ywvFcbGLJHo2YvoaqBwyHeuf0ZcnjIXwJsRe+iAD/0VWu+9q6YE3Zh81WGUROPHaJqP2wf+qWyvcwUk3GnrRPH4ATQmRUUPiD3vTUsbApji01jmsuY80nXHogDHJUiHeAkvbcrSFLQTinIPLpVTH5BMRHkStngoKMZbonbTnOu6NUu4xcNx0j3liPVPI8l3I5UKZBYuvchJMCvXMW61Auw5j0vRrPE/hL//7nSt7P4o8gQ9sMjGYCUT1znM/NQXWW2D5tHUX8Z0Lkk497vEQNyOGGcGRu934KFHr7DIlOMlMZDIOOFddkbfR9tsSivfphOs70BuvVEuFZx58BkeE+yitmmmJtCzVXXa0AqsKvH1BL1T444jXjUJVzDVm6IdikQPSTTz/hKbI1wbrWHhOMaHoiYYy8dgXWlTNWblYAT1BQq/NfsIns5Vwaw/m+rq8FkxhgGj/sLyIdeRFvQnbIjlEFlYFFaBYJItAKsf1sSpmzqqaC/ogXm3P5GeUVu4RCqK25AuZ+WlKSSQkNg8rVPHDyzI/lP6/QBRopqE0AjK85L47MemYzili3DrBwAQ45IKOt4KQ8+fZbp9W+JqAKBf5qs3ThSOzYgpuPGJuqiOsq1K/W1Do3xv6VIjaCpdfEMLHkqZIi1C+dZAvC716bGCxsdVimXKYs7f4u8pm3cNv7Jkbp3pI49NpBpUOQnbrqtdGjjEejQmDi8AuLC5/HJETE8WHhk+9nOrxa4nxXxlrUMtSJPo0BGmz5G4l0nld7f+K6XKY1io1nZF8emaMiT0aPN5JcOb3VT2jKRWO3uKv6miGyw2n0MwjiwIwcPoyDeUNKF7+kH/5z4OfUmfyCShqpe2MUaTGacriwizKGamJ6wtvwtXglzO1q8JPQyIcmDJ9a5W/c5Nftg1OkCQ3nj+5W/ILZqSgTsBPiJ8sHPC8S77Jqif9mrXxPGEtO0J3CBrjtDKufsF8MesGiyly0/T2OnrAdFNdUeqAqkHqlhFe9aKwhldS1Nv+iifHL7jty5pnMAcc9Ai/dpPy6PDmPKZQ3uWdrCtii3RPy+QSEnrw+E5Qlnd5X1sAQdCDyp6jQB5Ek6efAAJBCcoEBPwqsJjniOuurIFf1LxtYQsWvbtoeQE0uhoW2YynH9uq8lRtawzGqgspupiWn7mb9YaN0aF2CbVEeTBQcpx0JkLRWI53+cGR3OigrcEJRhqDW1qilkXQFdyjiGHKv7S+IpXhZO0tSSVGt2yT7GLO44yc0vPv57ALP11ijax4ymw7ptMY0B10roeuGoHm+GiSXBGNMjVsdxZ6/rHeihv4ZvVWZrVvzdDMr88W46ar8b5yExK0uI/rxDwkBMFV2LzPLwAAz/VaCByT0M7QFkY2W1FepwLC4C2aZcFQtdRqc5KfxNrsEsgEx/glkw9W87PaYfAZT4N2eXKFSekhJKIEhHCeYPCpp/GkUkc1h55xLvOR2cYv1eBcuiGqAVJAlJDFq3A8Iq8fnimDopK5RUorXfK2p8/39eqTgyNEXw0+jpNDRAlGki8Kpig9RGtskIuSuk/96VSr9nAZLk445Rv52h/ckZhLCoflyq2GUNwgo59K9BZ+WTzSsnr2vBeo1xx92W6qD+wW/A5cPUcHuSEyngaZ3hFE/rw4B33VV+ToyQmvtgxEEWnFfnCN1zTUIwTM06KzdxctjMoHD1vl3sWL1X6WiAp1WU+AfuhRRYn8IEmgE54DdvIPgAcnZ0MDoiKIAubXuKalKOGMtJXOtORknsLxuxAdp519j8LqVehWBQ3vl9WD2RLWR6V1W5v4x9TmbiGatbzmgJ5/7VcGds/AxlIj334CpTGz6nk1oesvwW2rYtFm7+fc002m05ALRsfPgsSynzmNikWYPvcJ11VdL7tbPMuFmrfpZ6ef+iLqmF5c3LsbiVcRrk4eKC09slc3DdBRgtuI+tS8S/vjiiXLp1+6iq3q9nXcFLkNJSDw+3JOIYemqE+HuGIwaiUOCFuOx54c15H210I1uUh7C3RQ4sGHVT5YeQPuubGhp5r2wHuILlaaocIjf3YZ7DxJLn4glFkORD9GhRaLquwRrzlYWFP+pnpW5v9oEu8LiHf+u7cKNWgegRyvo8qjFC6Vf7ODW/GKYIAEEXDflTy7B3ZawFxN2PtL3aF9249YaM0seJr8ijS5v9pADc/x4eoSpSQODcL0yR53CswrdtKzshu/hJW02Op3n82pspxQnl/1fr3/Ty7aXGwGWr0WKVTIw1ZN8Ercs9UbXX1tXYp0cXy4olk/fdw5XvFwP3JiOZlNpNzbTaySIYedQQ2kPVORBd9s1iRFMHyWuSEuOFs+rPu9kM4LCtWfvzZNOWMzfye8hfsGL3OgZ4LLq32fFHas6L+2hJakhOQj8D1ZPV8fttA2qZY1wyAUh0VLfD5SXV8AvyXhEe7hh0TkMwPQli3jb3ubbtT3RracCW5n2mg9gzAiWM6cbVAjoi6HOfo3u1BvY4NuABzPQjO9nrDRsSAF3upwEaSmPij+sCsdYxyDC8e+zbNMkH7M6RBv67E3/oDlKOMEpEPj9GEb6v/L/PIDmZKjX+XWMVcNvAUIH6hfsQq2X+INEdOftcRJkPTDL2yXeBIjlYKWwVX96DG4YT3MKjL37ZKVetwo8eDq5FX/bcpV0VDHUJKr2W9kaoLO4ipwqxGhqzik8Lmz/6HyTavE1E4e03JWyOcuVNo2rpoYWbPQCY0cJr8gvUIsFXLT06crMkOba7NhmtcjeQhtAWUhbGB3IaBpcmjlTHVeI+e/YdHydnYH0XWYtahHxLP4uEZ9sWCqPy3gKjguKEGeY9i9QZwkuMMeQJibceV4PH0gBwwYIZqPkoRuZl/kYn5N8kTuRsBeWXgwT8Y47SZecLYuL22WIV7+R+ud3wX6qJ1gzNcortJI6IlDqi5heC8koiv2cHG5Oo12eGv44IkNnubnJEJCTgbFsU/m1QS15lIMkMD4p5IG7KyEuMiEBGvMraO2nBnwFMe8ZZS38ukoXSRvEh2j/UqZVtGb6pIwuJBHHKyfnAwjFrpNGaaxdcXkZ/n/68UJqGa1fyL4TYYvAejJKYjlVT6BU/Q9ERPL+wDImxMi6SDB5st2ewY6+JcaKgxDdc9RfiQmwSgrwpkCnkuWmkKprvQN3BS9BzeZsS2pRb9fwrPLnQnRm3H6a6W1NwOdt5wDmGiPEXlcg7QW1P7CQcgtTpRSHC8HfdLAb3/m+2dJxkNnZdieTCNfTepchkghc1s6Dg4yhZr9ofgR3AelkDF5RY3W27xMVbTzNtLVyyiGy1IWiPW433L1daNrnMRmt8u0oSVrSWg1dS+1Y3djq8jZENBSw4nl9cnNzavN5F01deHPzqLRhTTpMMjrkuOlaWBNi5XzMriWOza9ikr5m/8urW5fBwf2DFmfg2HDZyWCpikGKUq/CIF3tFw5hZsRbcq9o9ZtFCpj1DN64BIiW8QeMEThQo75o3lcTLQTESKJD2iTcfkL7UtKGzo5ao+yloCIXQjRfI7XhJxWAAAAAAATVTRZJDKEhwF0/e6BsZxWH2k7sEEMu2uYybl/G+RRuHdYU2KoNpgWRTlvMKRnQU+LoJIEEs7hH+0i0kq1fVVzzT8cZvuMGCI1v3NMe34MRszyVrc4O8NEirKy3lNzWnDUSladJ5TmwFqV971fBpb+n5Ru9s4gg849ZeinNM+5FTB+dux5gC7/oBC3LoHAtWdkN380RT+KZMq+AAAC65usuc2NUtI4tb7j14uThHRmnk/5LIUbJw+h7TcTsw8zes6mNw5NhYZIY068e9CWQU5bx2MX/xpBeayixSOKD5OFkP/wwHgjl/aHxYara+f/i+ePzoAtwtsnhgJgn7f8im+12quIP5nM3kKDzIf4B11VPEfNETwmMp3MnPDBJfD94spjhE7G7JopiqPyjDicIDcz9WmMTz8xzZ6uhqiILyeoLmRX9TXKxQn00HBxAbTccHRJ9rs9IY5E6eqzuld3EGIv7SN1FKBlO2ZTtMXEOLqLn4anCZxTxZKbroyo1soQXzloBCvAIqH9EBJ6YpPJ9XQhDiBD2w+g6t6IXyyjpL339cu0tGwOoMFL5CxTjRUDSqX3y3YzpLRmPR2rphINtsBshZOVKwf91QU+xLBZ0+0jVKJOSzw73mzCkAAAFV0lZ/owW9IeLlAvjtWONENr+lT8wEwVYC8eOQW92zbnQNqLlRhlqoULIXKS6SaDBmDtAUDGcRAAhr4ktniCAVUCMRz44qF/9ZHrq3keAnUfPOXVBPsJi0F5/shWOVPmiKZL3wq1DI6UQ7ZOdcgePwc31+o/D9INUy0zmPR1JT3wxsf4LENbGBkv+F/9K3ouJiK/Yboc5NAe61jLAh8JWd5yWoRZHGHTDWGfvvEcr7HWcl5+Aw9lszRp9s93e7b+5ld4B+VcOpX9V2ca369N3zDlag4jCPRxNEmdZl+fEtVRHF3XvOvbNWo1eRNMXdwe39/CQANUi+gv3VgspH14pMecvhO4Ke89hUNaBwyPOb1mbhyQ+Jq+hTQu8cHqNTi1HftowPExuuaegVeu6vdwYs7cktsz0h+2pyYM1HAnX3G2cU+82u06x/aCsQw/ArR+M9FLAZn5MWw3hVa3s4AF0Qua7/oPMyQ6cIdmuanmCXTIQKGOtJmcQ7kWnd9RQX0qPxCzP+asVCcqlqjAPgQi/XeBXke93bafjvqIZ2PXKMhfBvYKSxr5famrIyfogVshB1cDMrEpWPAsvpH2t528uHRNspF7RWitSVydgAAAHwy4w/DxBDOgD5mpPNzSBd+ID53o6JThR+9//VusQRmuNZCRd//iy0PKWzbVK+Vb7ZnnNIcBwmvNlfCpWlm5EGr0XW1aHbj47bT16eW220j/iVC/IIiWpNyzbJEGKZE3KJzQ1t12rzKGU4Y/W//PxQWGBG6Dur3hrMYG+GGrn8n/bdZ7qNWHxy5UdacxqoIBL2V8s35OK0ZTZUijUAACrGUoAk3dXvP93pE9K3fMU4Ckhl19pFQ7kqBjdenExfNJRk/cGT1joYmVFcrR0ouZQkd04VHIhSWdM4CrQ5jwgArkV9/5AHYptIXM9Ixb0ETljDcOaM5fpO4HbYezsIbkB9+NUTuLipmDh2QzOtTY6F0/L4BoWHYL6qKW+o2XTBd5dG4k9NilaJ02nPqMsvXEm/OqTk8GjKOAAAAFRWuRkrOmQI4oJeyYe7oYGGRMvuK1QjRDCWRVOrrACAQHgyncUSq8oRmeDm0b8IdeEJ6Y9bFAEzKwoDKwoAAAAAAAAAAAAAAAAAAAAAAAAAAAAAAAAAAAAAAAAAAAAAAAAEVYSUa6AAAARXhpZgAASUkqAAgAAAAGABIBAwABAAAAAQAAABoBBQABAAAAVgAAABsBBQABAAAAXgAAACgBAwABAAAAAgAAABMCAwABAAAAAQAAAGmHBAABAAAAZgAAAAAAAABIAAAAAQAAAEgAAAABAAAABgAAkAcABAAAADAyMTABkQcABAAAAAECAwAAoAcABAAAADAxMDABoAMAAQAAAP//AAACoAQAAQAAALAEAAADoAQAAQAAAJkCAAAAAAAA;" vertex="1" parent="bSEiM5JxUbokL_L8aSXE-9">
          <mxGeometry x="20" y="111.33000000000004" width="160" height="88.67" as="geometry" />
        </mxCell>
        <mxCell id="bx-VykxBwH8emMBWzooi-18" value="Front End" style="text;html=1;align=center;verticalAlign=middle;resizable=0;points=[];autosize=1;strokeColor=none;fillColor=none;" vertex="1" parent="bSEiM5JxUbokL_L8aSXE-9">
          <mxGeometry x="50" y="10" width="80" height="30" as="geometry" />
        </mxCell>
        <mxCell id="bSEiM5JxUbokL_L8aSXE-13" value="" style="swimlane;startSize=0;" parent="1" vertex="1">
          <mxGeometry x="300" y="70" width="200" height="540" as="geometry">
            <mxRectangle x="240" y="80" width="50" height="40" as="alternateBounds" />
          </mxGeometry>
        </mxCell>
        <mxCell id="bx-VykxBwH8emMBWzooi-3" value="Back end" style="text;html=1;align=center;verticalAlign=middle;whiteSpace=wrap;rounded=0;" vertex="1" parent="bSEiM5JxUbokL_L8aSXE-13">
          <mxGeometry x="70" width="60" height="30" as="geometry" />
        </mxCell>
        <mxCell id="bx-VykxBwH8emMBWzooi-9" value="" style="shape=image;verticalLabelPosition=bottom;labelBackgroundColor=default;verticalAlign=top;aspect=fixed;imageAspect=0;image=data:image/webp,UklGRkgbAABXRUJQVlA4WAoAAAAIAAAA/wEAHwEAVlA4IKQaAAAQhQCdASoAAiABPm02mEgkIyKhJPY5eIANiWNu/ELZceZoo/RH9z24nN/Vf2H9r/aktr+c3q6yfNY5y85H/O/4Xsp/VH/E9wr9Mf1u/yPZW8xv9Q/2f7ne7d/1/2795v+W+0D5CP8x/pPTO9nP9xPYd8uf2Yf6//vvSl///Z4dJP1y/v3bR/temf90SzCVf+R/e/a9/V98frI9Qv8X/nH+m/rW/8gD/MP6/6Gf2vm5/U+oFwU9AX9Gei7ny+uvYO/YX9d/bc9jn7ze0+QL10gs4dElhQLZPq4o0WkFpMcUaLSCzh0SWFAtk+rijRaQWSw9393nLzgx5Y4aLSCzhy+QD7qVA0WkFnDokC4IrmSU6DoLuOb57kzJE+HTvCJkgaD/O+y/c75e0uzubyVSeeugdJk1K+Os31Gqzae6v3Dn2jFlwOp68vEJa18kPsq9GNx/eNYyW5KferBttwKTbKRXDT/FEL8FvcqUxF4RC6k3qSgWyfVxQ19hK1x97QjOpnnE8JmWHtqAvZBp8WZCkxh/6p28WAIdlkw2objpBZIRmFPb7NA9UClJcbC4BOARky6+qHv7Z9Uf2ITj+Kf62z7xJTNrIXrVAfVhYS3oXgttILOHQzz4FhqbgLDJYc64k2KBI+LO8JhiogFBKD00JyqzF+9kdo1MdeF1USwUVwoM/VckzVHMdV1SLO1dim14xoD4A0pas/KKtnD7qth/C23O47rU10LBcFtaLpyhbiFAyrMM7WSXLp9KRi8ilfPUUq4mBqauKNFpBoJSr2MX5DG9lilklat8PsqrtyK0XIscYpv0uauKNFpBZw6JLCgWyfXEFi9ElhQLZPq4o0WkFnDoksKBbJ9XFGi0gs4dDUo8QPRI3cTQFA2kFnDoksKBbJ9XFGi0SZjTSovkc01cUaLSCzh0M8/cDhqDRme1zQ1fBsBF6cJwnpl/c9TIpzF71fsDnHebt7fz9KrB4p36Pf7B9W0JK0ah/dQaLTDDQiS9d8ciL1sS1jXGZCNUmqkExQd1oPb13phk6dWH0Wupk6nt/tOoYP8GNA4H7jqMuakUQZGf801eOAIxr2/X0bvRosQpHCVaBvDY2lSCHwhWL9UZVcxRfrLWRSsMQ3o0Mo08xW8vX8wH1saWGuZf4+5vxzOGGNj/qUGf/dMk+8jWYX5q/ao1i9DgzV3wV3fONaC3J/t+gtKVugib/OAgszrTT4QDvezHlSwp3rzV6hYO+SlyOiqhDAEP2aEfbcuhTA3MUaNCS7X0k7eu9p9cH3GElfkc0EF1bYsO2752N/EXh9H16dpvavx77kTd4SKTqaWKoSttszt5cBXDgGprz/fNv0IdtwA1tsA9fWZ5rQCLZwBGqZTcrptaftIMR/LIrijRaQWqM20Tp57RQqz9BgRL3dAtk+rijRaQWcOiSwoFsn1bIAD+/lmn/z6H4/5x0X2vxCUXYxPhTCHAAFJD/a9QAAACNVxTGwFbHgf1MJ4tQNzHI5UPz2wNpq4Qvk4DiekzAShaXP8KXNz/qkjRvMPRoczQMgG3z9+ggVZsASqbX+H1W56/VDHZIul9VqPkVczNZbw7KlOJQ8Dvyo7VQZETLe2MvCDPy+kJvFJ/swBKfILkEw6gBAS74pjqbVBPcdLPL3R9iN9XfIJ9wHj/KzW4/Zmh45gTByVCqroXpvFOC1l9i/D6XRbkXlcwW3LgD88Wb/bqbFoozT24LKutTN2BYX4GeqOv0PFnvAOsX6qhfXBfs20YNAsjRA5kN4zcESbCel58C5OVtfu0L2yPMuu3YGAyQM/3uNPXt//gRfuaggOT2QDd/ypiBKYwppOKi0voD9bHWUJP3T7e2dOIXwzinmZEacLIqN3QDf4L+k/ZTwjPRmaX25sor0QeO7qUSWa2SAshNdI4CKdLoKRGokXdqHwTKPJPRUnO88po3rhAcASlpHNZOT1g3jaeVmU24oGuSbEb1ha+HHUUXILzHSkkWeoJeVTsqwk1RIaWtXH6+/R4HemDXg8GP0NMQydkPr4kZn5sWRn+ONvgKWzUKWf8EbV6ikiKcYhnBGVfkEScT/fXhRf17u2J2TJnn4t5sMrPxBf/kSLEIrLv99p22134gZmmxQYNpWe2yj8YjEyLuNiGr2YsUwmLr8diU+Er4hkIby0RcL08y5jBDG1yyPM1MUnDFAG1wTEy46/bAmaKsVtdrDYOV62aAT3qzX6mfdaA6hPRVrpU4nIjWjOgG8W4YnOaLP+SCEH0hgjQhuQ28k/DY3/qfkG7aBTIZYGiu9ten50aU8g9jiCkF9L4S0sounTyMhWlfxWptB2QdBN2DYpUOhdisvff2sLb704jjhDjeWgd2wgX3ca+Yj1Cz1YdRsxMwb//TTfG5MaBiSCxBbUPGsQaMnLopXfzOjrAdCXrmxtcwHYcaVAJTN/L/2/l3/zFAuM065YNNYgT3sA5qbjXP2e5VBFPrPzeP8vKPuqVu12iFZferS2ujXkF97y9JW958LA6FTc6XG6taZw2aTy9BnZBRdx+2ODqNhibTvPfPbKRFgzR4y5cL0E6Bk28eOTtmTABoc5KAIsQVOfv153i6UsFkZtRtAyWGKp59BpN/twiqEtgdlUu7+6TvwdtIHTKhu3ROpJinISuWI/sBLlZxUy3oeNMk9vDQlDUPIxBY1mrPPX1xwyUBObLLrHMRAzPWLV1yS296OwDh6eIe+VadoGs5nKUS2F9+2otg9JuCER0+n+X2ct1dYcUedBPYIVOEv8eh6XDt9XXeTDQnedEnxCZk/HZ4jp/fjwWhUEhL89rnbsKLwlgCxRPse6i7U797w17WXIRW3e/5PlJsUW0vLsRtF6Emv6PZe4oBMIA2pliDGrzMgisRyXYPL5+oXeSf+KFzSyDeAfjWFZMZR5Eh+/llabxXb571H/U7eWhUiBEMDGTgCtQ02Pl9gbQtv0CoWvIp6Zkql2STyMGA2/5T90AqQE1AHGh5XNAF71MQvL5Rsq9PnDyZCShzlao7l2XavqkQLikG0i9AWYM3rubPBr/TPx6Kp9CCviSQaACNkIZMAGBi4cKfjziSmKcJjgn7AtHibFiS/SDIS27Hi7suurc1YhmaG8R452OtZq3+F3gnPt0PRIx9p76BKqecmYDIArR/RqJvxdaEblzex8dJwdUh1/jK+ilIbVUUbVglNwXN896HaTRWkwAken1tYu3GhcYwij5GPIH1rSn9M4Pw60l3XCueXJlx15PaclMJhFfXfiw+59busL1a92I81DSGc3nL0ypUdc0STxbu7r/323l1qmw49yB2pIzevDYFWW5iTBRJrOrbOC8uHYbmSvwgB+XpMDjpE/8H22l8XOp+fRC9A0jlzHXawZbEEoua+I0scjCKfDhy+1kCZAWhXnukOXquMHLhjlZohXGsMfOxC/AtcPvMK0Gu6T3wOs/w7+42xB81fN3Kb6ZHSts5gBLO/uC3VEY0eFSLku0Jym3jmBK3nHnThfhwLzX+iiYSFowzapZ7THyRSc7L+OavvmdR9wIuXWpwFLfCZbUxk0i4lRQsM6m1flElvt6kW8ff2fmlBn/KQfphp5Jsim1JC8i6fpviecRxDhmuj4W2xbIViQEwLGQ2tAp9LoDEzdKaEugpOF0o1/c0gXUk/2KHUH/njotM91UwuTqaqN8gYr/kmZjmv6iyVd/msYqHg4HlO3DZwS4AoWEmRoRF6xZ179de05KmIoL8BV5usBhyksBKZUyK539Si9mf3Qk6voAGDbDI92b6jIhSCd2/TRQ2lRVVK6alSi1u45JwyaygCAlVhUe423gKnj7BjKabmRi5kzA0iBMGYOEfMyfkvHi0RNrIp0N1MeCu9Kp55rnQ6v1MpsXo3iovuo2hsYw4HOaahdO8XIbBRBD0CyF8S8CvFQe9mZ42NzM8qIp06KO84554yIPTroXjBdJIc8+8CDVNacaFIrz7G7Osrog5wB36DV3iSnuPp9DoLlajMcKg1Slq2rVWPurLTYG++J0iaTNd6YYQqMvgD6NrPwgKu5RJ5gdk0ectTQkjizdufNeSTTwCxo6MTBtuFSWcmwTk1sWIelhQvtNutB3PtwPQEgb1EppzNwISYQfdCYPQUv/Z3idjtYaQb7SkSBhF8y8kM0FiKRyr2Mh8SJLY6Sp0DxeJVnvUloQqsT8AvYL8ncgrnOxHkpEttjIWfK/3w2dCMXWGZJ6du9tcJ+qUIVSrhVtdyq8p+gyV6uFaMDNhGhVirUHH0PK4ARif/tY5G9V+xYQRVr52OMNc9gnqRsEq9vui1bFDaQRUwGKiwH8TYo8UdF3BdjJpywC2V+CskuHLJ0PZqTc9y14Hbw7z1UdV86O54ZkOhLNcibpZs4mJnDypswIxdW57Ms7gWtV7hQWpWdWdfkfF/2tOikgdZFv+xpT4Ozd/h7tunsYhanuTs5StFGYobNEe7scPZ8D08zg3HHJRW11oR6WYdNsqVzHvyxAHoiMtm2WI2UUuWq8wl+o76FTfT+uju/ZJDA/qF8wcc5sY3YvIK7nGGVpMhT65Mag2nJmPBEh11ii/basJtBfsIPz2OhyCXEhwJk6TM69KaaVxLbZAIM6DcamuaFdV78y9bodIv6UuWEpGkjXdB18oQZszDC78RqsBRG2J7swX92qElGMigQsGudqoB/PUu9UbcPmXH+iIYiSCGtUNBh+NGNilO4cusMCf03B4p6NTVhVw2H/7r0WTMQyV559zMr2nWv2U6ZA2QUJhkeYQPZWBtWn+2y1kEy3ynCge+jqbnDQuPtiNvs1UUFJDMVBzTEtAiXyW6giGJ6B9PFaSbFXGgH/jg85Uqi1cFuPAaTzeZj5jy9WJKz85DONG990p4H2/zicwyhWze7fNUkYfI6iTl8XTvqdHKh5jgoZpuhuKdbnLNs3ucktb0VRX3m4ZmKaO5lSrUeI5uW3ByrWuOiW1HtXdC3oOTKPbOL6Pv0Ig6AM5mC2jzdg2Xg5nVNsLcjUhLrKIp+eCM1pwOH6cub8q3hi6ALkUNRA1HPsR1RY1vL2LCqvx5+cBfhqaZm6bvG7LyrPoClRunEcDvUFH1Q5z2DLcH8NjWbfqOzXfj58qkkttBGPX4xYjwMfuxT9Gx66G37MERyk00fHeRofTK1zLfAFlerFV8GroWCEau1Ub2LoppVJxS9a25s4hpmTs9TUZqyN/eGNQ/LcK6GuNsloDcA00C09M56E8IGK7c8JXw7gUddbCpfeUXdgnHS6UZCb3DRPsCMCx4cBiQIzWNf91rMPPd7c5n5BTnCta+AAATa5KZzUiLymmTpT5Sx/OrahI423testbar280zouFc+pgCox16pWJELoZ4gAAAABXU6S4Blq7z+YkPep7D6hIfTFN5yegX85f+7lz1521AL110UYIiViX6k/1Y9D0NcNWVXC85RdS4aK4u9tMZxxB0IfspEVdmtnqkgH8+alG+coKS6k8j7lUX75hv1rwnAj2g7wQL24AAAAAAAAAABbZmBMxdPXROrDFxBS0aaldFERyNfdVkAA64H0QfSmB8lfyICl2H9GQxTzBYXopDw/zlKez8UxyPFJrqJDcInUiAHgDrmAAPL6UyWDyBwbMGkCUTV5O+GAPYTs0lykHvf5ahMcWR0eXL4lDmLqdONdmKt6ydgf5M65ewoYJR4RbHWlSokeek3zA4QQ4f+YPm/Uc1hI5usbVpsWJ9DnTBY5/TckrNOV1stZjpqURjR3w3YiDgUEB1ATZ54koI8pN01skLvYqu6UOGupI/eIyTwPVdADp8AdkVv1xssGMw0FrJCDoApX+TKemQ35mO1fr1z/eYjEtw1+nE0jUJyiPdV1OEhruYE6XUhlb2Hp6ya45EBP0f4UKc7gIwk1eNsepG/61/rJuAGuvbaeQ5v8MxAd7wqe2DGdOeSZgVwccz/hzFIXsRXA0xs7+91dbSJBvCD37fUFgfvcc26wCPC3L9C1jXg27a2BZ6121Z1eHJbo8badOccWoOu3UDsHgYfb8Nudz0pZxKuFcU0UQAfwE7JQiIskLaYLbuALwGO5azhxB+jBFD+EpZATJJsaZYmvdH4oaYWSqnvwzPomBw0F8qzXE40ljcTXskpOG+wSnPRZvVqtwHXYKsdbKco8+3uAjzimy+7GZ1xEyUbO5wEJm88/kVyaJBRGdq3AZ5J6CEfwvsEvvDpwutx0cnZNmiwaGrKgTdiOLtLr2WBxzgII1OW+CXsj7oMw6F5XHu+f9kEK2gNo3YUmeZ1oZ0KbWGqcjJdItUTTYuG63ag6W1N8bIoh3O1bBvlNmWIhpiLeaAhnGjrfAZTRMURFk7GVSM0Byg3QI6vSvMdiaVSco6ew1xIdNIxmaEZ+afF9Pm3ydj/Onl72qC1OW7Fjj336XJEO31l5ihrFkYWLjrtfRTtMV/L9tg02R0H/JWGgXuH0lcMFJSBFyCcLxbpV3XuTv+fU1ct+tzOcHMJgD7SR5tcp2f8i01AwuPGVoez0adJHr0PDdfwoi544/gF+ltz/FN8rRfIjK0/iN5PHcYpZWqa94FXq6guANoVPZVhGedCA2G55YhlRygGbdTcOCNv3KGnpVqlbzxDC6fd6+R7+JgpXYND2RbnaEfamzZETuqUZwZCvqGJ47KzwFvpFHKS3h+JBq8JN5tIiIvfO1KOqIMcg1YceFUo8qLxvqW5wiRxhlvvjMGIuW3j0r/D6Tns97h6Tn8tEeBeWcR+VzX0Oc8JPierFUwQvYMB4okOtKwIq8pSH73ABfER90jE6n48km2zjz5tYrsx/ASd+CnM2W3cs5Ze6oYTElnkW/G4PF89zSIBE/xwA9tUKl5NibklPfp5mS+k0Wrv9mAa1NFI4t/xjGC/rN5EdTOxhYgFpJBDVEOMOzJJO6/fVOGlq+MtyZ7F1BxEMF86/f1BJ0GUIr5uGABGAI8p7J9z0Ek9glLraq7FzF1MPWW3pBZRQEwkBrvGZ5SGpzNjuxwRN0bwsN5UmSrfZXYBv6k0vVhCWEJAnKNCbSAMJ5wAYDwQpCOFTVmrCvqaDsF1cXE0uUS0CFGbwAQ4djGxCrHdhdPAJUUKmUluVCzdX21cqUNGfmiSWeOsFEhN1F2Qrv0IRgr194yDc4x/Xv99EcidLSdEn0ZfyknDVeP3auJXKoP9mK6SD4oT1gyAXHLhWBFIqDV2ujAMeJ5SC+fJlWpvVxyddZ/d3ZCf7X1KJMVn/TJonEG2tJf+xWC2YOHxEv1XSxMQ3e9KCSZhIRZlvqlXwokVLergXEaKq+P1JcSkycoN2APnZ6GPOrPz07MsyxJp4yYGXINWuAzfEABAFqsEiFc/NkDkQ5Xvqu235fbaig2Kjvch2P/Mu8E9k0BViNRfthf9pAxdwiIRzSHWWXa0goP3b/W6v+cPJw11bqG9MumVR9MAq/vSsv+UjhKgcS0nrasYheOh9croehYU/RY9LdKUpBWkhCcNLOoDxmVNIOnn+pTZw/gceAca5TqC9K8ldDCXACJIH/JAMUj+kEA0RRsIi1Oh7uHHQXdGUSDG3q7opLElgeiULO3+1g5kOQW/J8yf8Ad8WJgiXHo79PzyLPv4VW12OcGZL8N++zkjfITF2JhnC/GrEzcaZU9cFkl0nOjTwb1Vg7vZ4lRb89lHsEPHYS12PgpJlrLfaYKHtHDvrfWoRDjAJi/oh1t3sEj1ALUSPYLL0PzvM3wLbjJoHUBNBIcnp12a17h4m4mYIq+XFXoSEIVba/PbcGH/Hhg2rINz4RzHT+/1VHEO3KkBo/irestoa47jJ+6P45Ua5tcEMRi4o8zzs53GKSADO4cMBjBusG9OmZZSema+LjnN2wrt8wESAFE4OD9O/BCG+Qz/8gSWIXEDT2Q4C6dkpm8m8qZytQLhfcolffexJ2pWKoinuuId0AL+/ypciCsvuq4q5/cFxKdJkSsRuCyQnz+alZsri+Rg7vB4/6QV9LVlO6D8ycq9znZuekPFslbSxJxKDk6yawaBfS/k7Z48iSTb4A0bGMZ1/3k3B1iuCsu/rFkPjZbsRnebw1NM41jkyZXDBIUYMULOsFgH0FtplZtsWPDx++0kGYvpIf4bMkCBmXM8SPtLjlqA7jb14rkStZthnB4c3d0reLfZVuzqtlSX4Z8pN4KBZRDT4GLPD+aLAbkodwin/SwYZws0Dn1IlMNBtcYbjDNhfgAELwb9c7wQtcIdNoRFlaLxWYfHIqj7QTgZCfmOMoBtzXH3w2UY3qiw6Mt3Bjhk57/43TIOP0Iy3qa/0vkR5KBD8U55zqJykVvFIZ725gRVg0ZuLi7hWwtRSiI3KnWJepX8MFEJRHBcTjjpaUawWsvxVeeSqjZXao+FRcb2g/a9CncAqYERBP1wM8ABA0a649qTTnlsGku4NGsAAr5bli3qFTQgANA4mD4tyhF1VBCUDS7UW7y9e3E555UKHn3keqXha98MoIbwNHCwcZqHxAKlbI1b12UwQQ0S1PYXN8+jE+I3yEwRvgiWDpVLuyvLl7y3Jr/3gZWyXfyMfMLMhmy8m3DKAaO30L2+Ddm+/cphrel82VTVUD7zH1TXBo0Qr8IzSY9/ZGC3Br+eP4RS1EmB3mCblbSi5VvbIERFvC0/vAvLR5wWvh9uQAjbMIflQMv3wxNDs2AoO7BX7gsEgqiumgFQ2wU7Bv3PjvqfhzTb8ix9AWMWzUXK0J2gERDuz3Ydv4k5MVOw4sfl7K7zppd9UMd1mQbX/l6DTcRHcx+YWnDhlVAQYiB47zfQ+bvaDNwP/fO7Fk2XCNKBVWN68BGGt8pD4SlbSSuKHzPV0eZBrPkeNFIvASP7Z3iKJAbGCU+MwAgX0RZY2jDJJ3x15pTCvAeQmGzWrOlqegSV5cEinSUkQnmTZ2/FJNvaWsS78SqHZydnWEgSgcGLjTA4rfCVILcXKXWsh1bQt6cHpy1NtGnjgsKuPGczrOrTrFBvIbfPmv5ujoXaKqhSBZKtWSG4FKWATtlDUSr+4gAuVt0qHOaDR9X1zAvryflxOH12J98ZdcbDC/p+wjsb6tMI15BQVPOnwbNZMXdTC6o+XTyzmCHpFcfkHNhE+0XUAAAAAAAAAAAAAAAAAAAARVhJRn4AAABFeGlmAABJSSoACAAAAAUAEgEDAAEAAAABAAAAGgEFAAEAAABKAAAAGwEFAAEAAABSAAAAKAEDAAEAAAACAAAAaYcEAAEAAABaAAAAAAAAAEgAAAABAAAASAAAAAEAAAACAAKgBAABAAAAAAIAAAOgBAABAAAAIAEAAAAAAAA=;" vertex="1" parent="bSEiM5JxUbokL_L8aSXE-13">
          <mxGeometry x="44" y="118.54" width="132" height="74.25" as="geometry" />
        </mxCell>
        <mxCell id="bSEiM5JxUbokL_L8aSXE-15" value="" style="swimlane;startSize=0;" parent="1" vertex="1">
          <mxGeometry x="610" y="70" width="200" height="540" as="geometry">
            <mxRectangle x="640" y="80" width="50" height="40" as="alternateBounds" />
          </mxGeometry>
        </mxCell>
        <mxCell id="bx-VykxBwH8emMBWzooi-8" value="Database" style="text;html=1;align=center;verticalAlign=middle;whiteSpace=wrap;rounded=0;" vertex="1" parent="bSEiM5JxUbokL_L8aSXE-15">
          <mxGeometry x="70" width="60" height="30" as="geometry" />
        </mxCell>
        <mxCell id="bx-VykxBwH8emMBWzooi-10" value="" style="shape=image;verticalLabelPosition=bottom;labelBackgroundColor=default;verticalAlign=top;aspect=fixed;imageAspect=0;image=data:image/jpeg,/9j/4AAQSkZJRgABAQAAAQABAAD/2wCEAAkGBxMQEBUSEBIVFRUXGBgaFRUXFRUVGhYbFhYXGhgaFRgZHSgiGBwlGxgWITIiJSktLi8uFx8zODMsNygxLisBCgoKDg0OGxAQGy0lICU3Ky42NS0tMC0rNzc2NysyLi8zLS81LS0rLTU1NS0tLS0tKzctKy4tNy8tLS0tLS0tLf/AABEIALUBFwMBIgACEQEDEQH/xAAbAAEAAwEBAQEAAAAAAAAAAAAABQYHBAMBAv/EAEQQAAEDAgMFBAUICAUFAAAAAAEAAgMEEQUSIQYTMUFRImFxgQcUMpGhFSNCUnKCkrEkM1RissHC0RZTc5OzJUOUotL/xAAZAQEAAwEBAAAAAAAAAAAAAAAAAgMEAQX/xAAoEQEAAgEDAwQBBQEAAAAAAAAAAQIRAxIhBDFBEyJhsdFRcYHB4SP/2gAMAwEAAhEDEQA/ANxREQEREBERAREQEREBERAREQEREBERAREQEREBERAREQEREBERAREQEREBERAREQEREBERAREQEREBF+ZHhoLnEAAXJOgAHEk8lktTtFX49NJDhUnqtFES2WsN8zzz3fMaa2BBtYki4CDVKquii/WyMZ9t7W/mV4w4xTvNmVELj+7Kw/kVi0my+BQOPrEtVXS/TeH6E8zmBbf8RX5+TNnnaGiqmd4lcfzlP5KyNG884Vzq0jy3m685pmsbme4NbzLiAPeVjGFbNUuYNwfGaqkkJ7MMl3NcTyy9kEnz8F+cR2Lia/e7R4jJUy3O7ghcbBt+NrDLfTQBoHUqOy2cYS31xnLVv8U0N8vrtNfpv4r/AMS6ajGaeOPeyVELY/rukYG/iJssXEGANGUYZMR1Mpv/AMq68IwDZuSQOdFLF0ZNJJk83Bx+Jspzo6keEY1aT5Xqs9KGExe1Wxn7DXyfwNK+UXpTwmU2bWsb9tskfxe0KBx2kgw8B8OC0T4PozjLJoeGf5q7b+JHeoM4/h8ulRg1KQeLowwO8vmwf/ZdroXtGYhydakTiWxYfiMNQzPBLHK360b2vHvaV1LE6TY+iqH77AauWhqwCRE9zsrudjqTl8C4dytGxe3kpqThuLxiCsb7DxpHUDkW8gSOmhseB0VU1ms4lZExMZhoiIi46IiICIiAiIgIiICIiAiIgIiICIiAiIgIiICIiDPfTfiz4cN3EP6yrkbA23R2r/eBl++q/te8UFNBhNN2WRxtM5Ghkc761upu49bhSnpYjz4jgrD7JqwSPsviKq23UhdiVSTyeAPBrGj+S09LWJvz4UdRaYpwgl8RfbE6Djy8V6LAumzQbh9C/EXtBmkJjpQeXEF9vJ3k395U6ondI9z5HFz3G7nE3JJ6q2+kl4ifTUjdGQQN8Mz7g+dmA/eVOuqtPn3fqnqTj2/oIiK1BObM7TS0TrD5yB2kkLtWkHjlB0a74Hn3dm1mBRsYysojmpZeX+U4/RPQXuO4i3RVclXXYBznGSjnjkNPUtIuWOytfbRwdawuBx6hqqvG33x/Kyk7vbKmMeWkFpIINwQSCCOYI1BVp2kk+VcFmmkH6ZQZXsmHZcWggk3FrXa11+9oKrmIUjoJXxP9pji099jx8xr5qfwPs4Ri7zwMGXzLJB/UPeodTETp5T0JmL4arsbiTqrD6ad/tSQsc/7RaM3xuplV30d05jwmiadD6vGT95od/NWJea3iIiAiIgIiICIiAiIgIiICIiAiIgIiICIiAiIgzb0wt3cuF1XKKtjDj0a8gm/d2Leaq3pCp93iU/Rxa8feY2/xBWgel/DjUYNVBvtRtErT03Tg91vuhw81Sdu5RUR0Na3hPTtv9ptna9/bI8lp6WcXwz9TGaKkunDBeeEHgZYwfORq5l04d+vi/wBSP+Nq9CezDHdo22O0kFJWP3dIySps3NLLqG9kZQwceFuFvNetNtCZYIpKuekmimcxj6cRlr2F5DSBd7s2W+twNASCqn6Sz/1KXwj/AIGqr3tqOI/ks9dGs0hfbVmLSltqsLFJWSwNvlaQWX+q4Bw152vbyUSrj6Um/pkb/r08ZP4nhU5Xac5rEyqvGLTC47HMjp6SoxB8YkfE5rImu1Ac7L2rde2PIHqp6LaqSSrpYqes328eN831dsbWt4kNuMwNg7mbdVBbED1mlraH6T2CWMdXMt/MRqO2ANsSp7/WcNeR3b1RasTNpnx+FtbTG2I8/l4baSB2I1JH+YR+EBv8l319M5uAMgbcSYhVxxN62zjXwtGfxKLximfJXzRtF3une1vi6QgfmFeYqNs+N0tLHrBhdPmdroZpWhkYcObsgLr+PVR6i2NOtU9CM3mzQ6aERsaxvBrQ0eDRYfkvREWFsEREBERAREQEREBERAREQEREBERAREQEREBERB5VUDZY3RvF2vaWuHUOBB+BWL4bSudgk9K/WXDap7NeOTMbHws934Vtqzeup20mPuY8fo+K05Y7j+uhFrdBeM+Zf75UtttEo3rurMMyXdgJAq6fNw38N/DesXjXUboJXwv9qNxae/KbX8Dx814eGnf/AGXr94eX2lYfSC0jE6jNzLLeG7ZZQ2HUZnmjhbxke1o8zqfIXPkr1U4acbpWVMIy1UQ3cocLNly69l3C+t/vEHkV5bFYHNRyT1VTA9pgidu2Fty97r+xa99BbT66ojUitMeY4XTpzNs+JRXpKqhJiDmt4RMZH5gFx+LreRVWXpUSOe9zpL53OJffjmJub9NSvNXUrtrEKrTmZl34FibqSojnbxY7UfWadHDzBPnZXCswsRYvSVFPrDUyNkYRwBdrIPcS77x6KgLR/Rli7Xt9UkaHPiLpKYm9gSHBwvbs+07Xo49FVrZiN0fss0sTO2XylgjhxDEMRn0hpXPIPWQtFwO8A28XhT3owwySOkdVVA/SK15qJePZD9Y2a8A1ltOVyFT9sMVpPXIMJqKhkcEbvWK97tBNIXZ2xc+LjmIPLL0Vtq/SlhcTc3rBe0aExxSvaPFwbYe9efqX3S3UrthdEXLhmIR1MLJoHh8bxmY4cCP5eC6lBMREQEREBERAREQEREBERAREQEREBERAREQEREBVL0mYDJWUJNPcVNO5s9MRa+ePWwv1FxrpeytqIMY2jLcSpIcWphcPaG1TBxje3QkjoOF+mQ8FFbLYA+umyg5Y26yycmN46E6Zjy9/BXPHdmK7D6qStwUMkZMb1NFJYMe7m+O5ABOvMceYNhw4jhOMYpRy04ggwuIg/NtIc+c/Vc5mkbDzNrnhqCVpr1M1ptZ7dPE2y5dp8NxLEWx0+EM9VoIrFk7pDCZ3A+2Mt35OYNu17Wui7qvaOXDaRlK2sNZVk/OTmz2x/ut+seQvc8SeQXicSq207KfGcHqZ92A0TUhMgcAAA5zI3C2g8O4LwhxiKnY+bD8Cqs8bHP3tU10UbA0XJDpCbkDk2xPVV0mkc25WXi08V4fv0i0xMNJUzRiOokYRMALXIDSLjqLn325Kjq5bV4nJV4Xh1RMQXyh7nWFhc20A5AcPJU1b9Cc0hi1oxeRaPgNPVRYPG/Do7zSyPMjhu8wY1z2gjObH2WjnxKzhXuvjle3BKGGomp98yWSR8Li02EWfXkRd3PqodTbbWP3S6eu60pijfi0tt9QUpcP+7MGD3hrifcFx7Z7Ythp3YfGYqyuqAYmwQM+bjzgg59TwvexN+oA1XRUei182lRi+ISNPFu9DQfKxHwVh2U2FocMuaWEB5FjK8l7yOYDj7I7m2Cw2vu8RDZWuPMy99hsB+TsPgpb3cxvbI4F7iXPt3ZnGynkRQTEREBERAREQEREBERAREQEREBERAREQEREBERAREQEREBRW1TM1BVDrBL/xuUqvKqhD2OYeDmkHzBCDEah+bZ/C3DlvG+4uH9JVdVh2bhM+zpgAvLQVEgkYOIBc8uI7hvHH7hVfXpdNOdN5/UR73wi+g48lp8UN9oqWIcKXDyfAvdk/hVL2Pwd1XVxtDTkY4Old9FrWm9iepta3f0BV39H0vruKYniDdYi6OngdyIhb2y3q0uynzVPV25iFvSxxMtDREWNrEREBERAREQEREBERAREQEREBERAREQEREBF5TVLGWzva2/DM4C/hdeXylD/nR/jb/dB1IvxHK1wu0gjqCCPeF+0BERAREQEREGXbQ7KV2H18mJYKGyCbWqo3WAefpFl7cSS7jcEm1wcqiPliJ77v2Zrd9fVrWSiO/PkG278q2hF2LTHaXJrE92WjCsXxJm4MUWE0Z9tkZa+d7ebbt0bceB63Gi0LAsHhoqdlPTsyxsFgOJPMlx5km5J71IIuOiKM2hxyKihMsxNr2a0aucejVBw41icwzRUEcbTqN7N2iORLQAR4FTikzGUJvEThb0VMm2vqKVw+UaMxxk230T940E9RbT337lbmVDXMEgcCwjMHX0y2ve/Sy5ak17u1vE9nqip8m2b55DHh1K6pymzpS7dxjwcRr8F+nYpizBmdQwvH1WTWd8b6qXpW8/aPqV8fS3IoDZ7aqKrc6ItdDO32oZBZwtxy/WHx7l+8T2g3NbT0m6zb8OOfPbJlBPs5Tm4dQubLZxhLfXGU4iIoJCIiAiIgIiICIiAiIgIiIMy9KNFHPiuDxzMa9jpZQ5rhcEWZoe5Wc+j7C/2Cn/2wqv6VHSjE8INO1jpd5Lu2vJawusz2iNQPBTnrmO/suH/+RN/8IIKrwtmDYxRGhBjgrXPinpwSWZmtBbI1pPZOo8h3laRVVscQvLIyMdXua0e8lUulwCqdUjE8Wkic6mjeYKeAO3cd2nO8udq5xAsufYXZuKup24jiLG1NRUXeN6M7IWOPYjiY7stAFtbXKC+01UyUZo3teOrXBw94X2oqGRtzSPaxvVxDR7ys/wBtsHhwmNuJ0DG07opIhOyMZI54pJGsc18Y7NxnuHWuFzbUPp48YM2LxOfSbiP1V743ywRvzHeZ2gFoedNSOCDRKTEoZjaKaOQjiGPa63uKhNtcdkoxS7osvLVwQyBwv2JXWdbXQ96reJUOFYg1vyXU0cFY1zXQSwlkbwWuBILGEOe0tzC1ua/XpRwOneaKaSCN0slbSRSvy6vYX2cw/ukckGiCQEXBFut9FzQYrBI7IyeJzvqtkY4+4G6oGLYHDLiUOEQs3FGIHVdRFETGJy6TdNY7Kb27NyOfuVon2Ew50eQUULLey6Ngje08nMkbZwcDre6Cwb1uuo046jTx6LxnxCKNwa+WNrnWyhz2tLr8LAnVZDTQSR4btAyaQyPbI9pkIALw2Joa51hbMW2J77q37N7H0kdLHV1cLJ6kxslkmeMzmlrA4CO/sNaAAALeyguVTVxxDNK9rB1c4NHvKU9UyQZo3teOrXBw94WS7IYthdSz17F6mmlqpS5wjme17aZhcckUcbtG9kAk2uSeK+7T41hdGWV+FVNOyZj2b6CB7Q2piLgHtdE3QuAJIcBfRBZPSccj6KZ4Jijm+c0vxLCNPBrldKSsjmaHxPa9p1BaQR8F51YhlG6lyODx+rdlOYfZPHh8FWqj0d0ty6B81O7rFIf6rn3FW5rNYi3GFWLRaZjnKxY3hwqqeWA2GdhaCRfKfout3Gx8lRtpKaWnpKTCmS5nTPLHPAt82HDS1+HaHPg0rtqsLxOiYZIKz1ljBcxSsu4gamzrkk+YUTU442rq8LqiMoLnseL3DXgtB16dtpHirNOsx2nMf3hDUtE94xP+tGwzD46aJsUTQ1jRYD8yepPEldSIs08tEcKV6SMMtG2uh7M9OWnMPpNvazutifcSOa48RrBPimFTN4SROeB0zRuNvirDt7IG4bUZubLDxcQB8SqdQxltVgoPHcE++NxH5rVpc0zPz9M2pxbj4+2ooiLK0iIiAiIgIiICIiAiIgIiIM92/p3uxfB3NY5zWyyFzg0kNBDPaI0HmtCREHlUwCRjmO4OaWnwcLFZ9sttA3CIG0GKZojBdsNRkcYZ47ksLXgENcBoWnotGRBnO0mKtxxrKGga+SB8kbqmpLHNiZHG9r8rHOA3j3FoADVK1200lDXSR1zCKN7GGmnZE5zWOAIkZOW3sSbEEgCyuKIMt22xXDMQpJYqONlVVOFoNxES9kn0XmQNGQA6kkjS6k9uaWZmHULpGvlfTVFHJUFjS9xERG8cABd2tyr+iDPMSqHzVMOM4ZG6oDGPp6iHK6KR8ZcHgxCQC7muJNud7KWO3GcWgoK58vARup3QgH9+V9mNHeCfNdG1eH1hlp6mhku+Euz0z5HMjqGPFiHEAgPHEEjmV4vx/EHDLHhMjX8jJU0wjB6ksc5xHg2/ggouHU0/ydj7JrPndK/OIwSC90TSWsHEgXsPBathUQdSRMcNDCwOB04sAIUbsTgD6KF+/eJKieV81Q9oIaXvtowHXK0AAeHK6sKDOtmcXZg8IoMTBibCXCCqLC6KaIuJZd7QQx4BsWm3DRdlXtU6tkihwcbwF7TPVGM7mKIe0GucAJJDwAF++yvKIKNt/SyRT02IQsL9wSJGjjlPPwsXgnlcKewzayjqGBzKiMXHsvcGOHcQT+Sm1EVezFHKc0lLCSeJyNBPiRxVm6sxEW8K9tomZr5cWP7X0sEL7TMkeWkMjY4PLnEWANuAvzKrmF7GPkwgRv7E+czR30LXWAAd0u0eRI6K6UGz1LA7NDTxMdycGNzDwdxCk131IrGKObJtObKdgO2rP1Ff+j1LNHZ+y1/7wPAX93QlT0+0NKxuZ1TCB/qNPuAOq6K/DYagZZ4mSDkHtDreF+Cjo9j6FpuKSHzYD8CuZ0555h2IvHHCnYtjkeMVUVGx4jpw7M9zuy6Yt4NYOXO1+88gD3bXVEdPi1A+RwZGxj7k6Bos4D8wFZcc2Yp6uIRvYG5f1bmANdH9nS1u7gu2TCYXBokiZJkaGtMjRI6w6udclWepWMY+UPTtOc/CN/xnQftUfvP9k/xpQftcfvP9l3/IdL+zQf7Uf9k+Q6b9mg/2o/7Kv/n8p+/4d7XXAI4FfV8AtwX1VrBERAREQEREBERAREQEREBERAREQEREBERAREQEREBERAREQEREBERAREQEREBERAREQEREBERAREQEREBERAREQEREBERAREQEREBERAREQEREBERAREQEREBERAREQf/Z;" vertex="1" parent="bSEiM5JxUbokL_L8aSXE-15">
          <mxGeometry x="60" y="120.66" width="107.9" height="70" as="geometry" />
        </mxCell>
        <mxCell id="bSEiM5JxUbokL_L8aSXE-18" value="" style="swimlane;startSize=0;" parent="1" vertex="1">
          <mxGeometry x="880" y="70" width="200" height="540" as="geometry">
            <mxRectangle x="840" y="80" width="50" height="40" as="alternateBounds" />
          </mxGeometry>
        </mxCell>
        <mxCell id="bx-VykxBwH8emMBWzooi-4" value="Infrastructure" style="text;html=1;align=center;verticalAlign=middle;whiteSpace=wrap;rounded=0;" vertex="1" parent="bSEiM5JxUbokL_L8aSXE-18">
          <mxGeometry x="80" width="60" height="30" as="geometry" />
        </mxCell>
        <mxCell id="bx-VykxBwH8emMBWzooi-11" value="" style="shape=image;verticalLabelPosition=bottom;labelBackgroundColor=default;verticalAlign=top;aspect=fixed;imageAspect=0;image=data:image/png,iVBORw0KGgoAAAANSUhEUgAAAPoAAAD6CAYAAACI7Fo9AAA4WElEQVR42uzaT2gUZxjH8TWliBTprYWCbXV3Eqn51xRK4mZ3djeYiyY9tT3XVnpoRUHUkyfxLHgQRRRERG/eRRH06EUP4kH04jUePYho/D2Zmd1JdHZ8380mk/D9wI+d3dmdd+Z938d5J20JAAAAAAAAAAAAAAAAAAAAAAAAAAAAAAAAAAAAAAAAAAAAAAAAAAAAAAAAAAAAAAAAAAAAAAAAAAAAAAAAAAAAAAAAAAAAAAAAAAAAAAAAAAAAAAAAAAAAADa0YLTeUyqj00q1FIzZdq00OB62twOlMqL9eh99XrPv234l1PbS+636XkWfnVIWlEV9d1GvK2Ofp/fd1e/mdIzvdIwvgrjdpA1rT/usHcXar8efN9oZ+rlh+9qx/bv2TCpTmdn506R9V79tWhsZaST9kGx7R9foH7Uf9YuOpWtdnqQPmtrWq733j/WNd8rD1dSYNLu009T+VjRWI9WcTC+9DtlvJlp2bPtdanyUaPw7r+05FPW9Pt+iOfG13s/o83v6zaI+y5yb6sP3mmfPNAcP67OvdA4DGgc7h6Qm0rWgsakr8fmk55N/ClXogfY/UOd1CjcqXo/Ev+0c47XaqFPoFHoPhf6l+usPbS8VtV57mpdqX2nY59c0H7du5kLfpou73rkbW+p9TdzWgs5huE+FflEDaG1kpDNBtH1W29vXqdAPBnGfa9J+HJ2nXYdtqy/+XedC/165FZ9PRqxoWtavR/tQ6LPa967f8zJQ9PpIhT61WQr9bGqpvS6JJ/mCtudyCt0lv+mYLz/3HJKiV3YppbWKJvj/iktfWTE9VobWttAnbVzmdv8yo/Oo5fdndE3HKyN7V6vQ5/T6Zq3n6aCidq3fz+tctm+0Qv9VjT1JFXhhokJ/qnPdklPoySqka1ToN1yuzwpOfVO23zrGd8DLym3XPhqasPOsz5TVrkd8VwP7XPpS46bX2rFVuKMPqO1X6z43x+vJauVg4Qu9PFq1Zc+bohX3ytjSTLmcWejJ8n14b2Z27pmy711wuVYNpBX6AfvjzBoV+iGPsUjO83e/QlfUP67RNe5TMToVev7SfTqv0K/qTvq2KPMy9bh5RtlWyELX3e1PdVwhOsthstxPFbpbsavQK26FrrS/u0MpOUQFVHWOfndI1+Zzd1HCh0pFKblERetb6AcGnQo9XNA/SPuzVghakeUV+ouizMPlqUUrqrHavI2hbzKpA3rJfFTkxb6Tf/J5dLx5J/cZfbSWlVntf+56t9Rdb4f94ckpI+7RXfk/z398k/9MFColh/jegb5Rrmv+fPa56eZyOncllF3ozwox/7qvqP7uS6GrgV4yX5ROco0K/b0m6LkuRZ73nG7LP9dC/8G10DXwrvlW7d30WLqn/54Qekwyn+fz0PVvHSrYkypgn0J/UpS5l5W4L47YOHpmAxT6eJgqijAZ1JXL31VMaMe/Z9fhU+zaf8Wp0PVdDcR+ZcBh4HzG5K/e7yrTs54rCaeovVDtOT2fa5l/UiktT8seI7sU+sxjjfdqFWI0N3U8zY/00lv7m4u7J1rx+4Z93+f4/2yiQl/2P7lYrNMu6bWlBBqgsp6Ff9QzXKD3Fe2bVEeeCMY+sHcmcHZV9R0/M5NMQjZDYnASCMlMMjOZhZAIyWSW9+6bCSiNFnekArZF7Ke1asGlIFKQHSotlp0QI8SwyS4CRfBTlrBFUBAQYkMpmwRQAoVAFiD9/ufdI9c3776zzH3LwJvP5/e5b+5y9u/Zl/Tr70KaSMTRLspcJ+OZsYr3+8me9jY4hK8PbH87nLBpyQJxEfqggzt9EqUeu3YpDL6PVD5hXhzoR2DHa57pQw+Pvkha6MKO0YP9N+1dNdzXcxVCpbITehDxIM9G8X4jz07FfZvI0CRs3/ugRybMbMRBB0WnwnKNBppEUDiRoifyLBqogeL7Cfz+Jb/fGWap/iyR+Ml8kOPOuCq1dtuVrkND+KuhiUk3lvIB/RDsSaIHuBupIupD6DLH9utRhEmeCTfxVfnWBZkHfEpzwvBV0t1sPbNRp4cQdGUEPVIj43vpwNVTs88Wv6A40L/CEKfyVHlA13DjgAvw/A56SqpcEwBd/67h+llyzeF0Pl0h5ucT9uQHvUPcFqx2bWPir13sQe92zdFHSwlidpN5UgqQdLv0nuNeJ/FNL73MTm7i+l1r0LlHvN7tERYyTLxQg1wE0PVEnTp0RdR9Aj/fHYb7a5DyUMlAj1arL8bi0RpI8XyRQJerRPY4f9jTd2D+jnlA1xEVp9WOpYQAtB+qs4w41/g4QNuVAOipIoPeZws68YrSlP6piUMz4oJzEO5zSxPBVjKHsRK3xQY9+h1a3QrkMjtQmPKFHBVzeC2IDFmlf4dnlmqgxeISgq5wwyTc5FWqY8ellKDY25OrAsNcPeOx8xeOiUk0DSkLOVbb+w5Iqu+COPoGGoOUnfqcRHwus42r0E/HDTWnV0/3zac7XKrsYRNwBsCpkoOOxF5AH7xXDNDNkWKOsMVSddYekntlBF0iYCryAD0dCzr385dMbV1i9+Wu7XTCYhpSSYtwPRDzk5yptQipImgWWuu4XmAI6Cg202kBdPt4SUmz6hF+11ZBj5EGsAJAj6hvvp5W6aCbpY2LVK5wRyzouM0H9AZLeJ0iGbcciltsALYc9+9d1NTZrSzkWvNY5BY/wT24eTekIirY28/zNS4dfcTxJKQiqoJe+aD37uRZsp2FVI5MVdMu3PAYcqkWfwbVIWUSq5xsNYA24w6T3YcycaeJ/+8v+C4gEmeLiwT6YoHLYW77KVl7eqISc+LCohm/Pma/mGdAQK+vgl7BoBfw9GINuwOAF85uW6waichcsZwS93QPFffpm7jWo208OcnxaWk+mfwbuvFQoJFvVvB/QcB457PW6QA3OGgv7LaPl91TJ+UFfbdYe6927Hx8FdUjlUdV0Csc9J0JUNcOuYscQUdLxG3XuM6Sw2+TkTLIBfTPFYYnEN1CPDQ14hfuLTdlDPjpZdSClEEu015nod84VNtfwfwvONp5meN8ivVoNFL5VQW9nKCbOnx2Rq7TD1fN0b3sOdKlR4wO5/tNDvPsBfRpFqC7VIcPblloKKF3Tx8l7w6W6Bp0Yzu9Z4G56u60m8wChtUcqu3BGbhhqJ8JG2CX6a1oIFe3Og61rkejkSoo7CNtZkHfPaiCbg96CgURZQNj15aFilJHB6R+7lqdrUdfdxnCIde+NG+iEnUWUMdgorsJWduFPw9BdVbha9Y8zL0X+02gH94UZp4tH+5fbnJva7adnjjolh1xegeWf8uf4Yk/YofWbuGZQ9U9eAXVI5VPeu8/3BK227kfpkXsCmelyX0BOMX+DH3vc9B5Vy8U0d/4gI4sN0NIdTp2yt2InWOQyifcXWA6bHA9clrEgyYaq8R2+iSymbd9eGT57VQS6638b2qnBzYJjPcslf4E5tqG0atA8UWkcmQKj6vcJwj11iMVkU7TDqDzPHI/BPn9AHqvfp69J88TAp1nFlXavjluiybSt+Pe6UjlV7qQrm+xB10PX0208INRhKmAboLmyeYFmQFKG72BhoTphQWg07Mc16Dp5swmY6M5aKN9Uyr4YfxQYsH4OJZv33CICwF9QjFAR+H78q38Tr/XQA89z7VYoPOu7iyL60Brsu+QC0Trcd9SpPLIGMhE5p2Y4TKePiUh0D9fCPTw2Sk6zsTcxizoK02lKwkQ9bcjVUC2/QidLtV23HYmc9bjQY/XOPz8K5caFpC9zTe1XPXGkYmCLleBXZszdySD/ufAp0oCOmYVAr3RY9jru0jlkRH2wQ0Zbe3L9vL/DapFahiaJstKsbsgNMTT0eFEnzBR9qPMSsLVZtVYuyGzsQV9vkvGK6AjNVT9YYbVE6NuSWt3uo2EyOELwbISga7NHHmg49lyga7/z6dG5AL5W+ifY0A3tpV9dl5FYw09vSYtQ0ZYCYd/AXLJ/KLh/0G+vc0C9IUm0HnXRh93gG91vJ8zhUHv7BZQ73DL5FMC+1Zg27F0oHMNq/K8X1TQdUT5SnswhLtMoMeD2IjcQfefvDIL+x5xG0/vHYtUjGymvS6z8OM63glQpLoYipEG80YUwRloElIxshk/b0SbbZs1sgFnobUHPDfZ91XM2ugxx38b9n+z9KAPoH7VtmhvAV7sqYIeBzoqLujRXvf43vfbXNrpfDd5mKDva9E+/0E0QwLwaJVxdYtFjQC1FALLvNtrb4vd+LluagTnNWrQnVYUag0Oed6NvDYkwQ0vV0GvYNAxP0nQzbD7g67H0w9HNUgNlTFi6wmHowqCnt3s8Xg940+u/C+TSnRHmhXoxHWLIZMzgd7usJDlJsJwPFJxwg9G0IHKvPGEOY6er4JeoaBzv1igo5RJ++PWFxzH00d5jqMvRTabPR4XBR3owu/Toh7c+7h5hKCvvQDoprb5aHSwTVyE7/xIz1CME0OEFuqW9vz9hGMC24NnXuK6tAp6cqDXAHotoNdUIui6Eyhe3eLWu5DLrjOjkPMwEt8vbbaD55+ihzYCekQ94t6rkWkdwMFodIxbbMbPrcMDrUwE9I5umQG4FJCeT/hElSdJ1x1V0M2gT+Defmh9NoFp0fOZHdOU8Vu9na5+Hp2X/Pc8awK6MZhVkwd0fpcPdCJzjcvqLPww3hP0vU3tc8LzYd5dkjvDLwo68XIFsmmnNyKVT5gVK8JsjsOw2qPUMpYgZRLmWoCekWbKQ2J2wtKn0W4g3X+hCvq7AB7b7H4eussmCpvRAPaMjYLOPT/Q/eW464yUlulvIJVHhQDied+XLAA6I88wYS6oVqDT9m2MaYObQG/me9vTby+xTdSU7Dag66GrR0twdtoz/P78+xH0DkDXpVtppDMS9gDD3q0Jg65nlhmF/b9C1kM6qAapXBVwy+LBb81Lb0/NrfZyL9eeg3n/JdMMOaBtigG9kDt3QMdZts9RZrXlSSy6VmMtzC7FkUx6NqH8vvC9Dvru4Z7rI+1cNgPotrBLdTiz1n41W2YbANa4DK+REAINj2nq61Az8018Cm5ApgUuAzEjBIWmx85Etpn0ZhL94UjZiPddQReV+JDF4E9DnO810I+u9OOThws6EWWjtQ6LKt4CwHGOoGcIZ1PN5hV+Hxh1N2aGU4SXaNET3yXPrjFnHJkNaCekclRoVdtMi/Fz7d4rySRdN8R0BR2gMhdJLaoMp/jix8y1+LNhJIP+qcESYeRC7lCip2zCZgph8jvbedaYeQpSOSq4Yo0EYirNV+RLDEw4GQr67hagYx/aGakcFUp8zfjPto17eYlAl2p0Lfb9sVyn+Yb9ODuNNND3H8GluAPoulTUoMQLeCRRPejQ+74FqRzFz+Fnc0eem7awPp153znt6W7dRs+VTBl9xWJMfmekchQ3zr8DOtWhQ+sypFzEd56gazMyu3B9swxNTL3ZybdHCuifKRbkYQ1hRILemC0lf41sO3C25C+18kLUrcPcFXQUu1EEfrvFvBFFX2f+NnomnxqQbbX95wmsoPQBPcwwgpn8fhuVFnYE4M+j3qKCzkMviUNw2L5JQD502C0wgs/7UcmzUlbdbROhjHNvsIrwLOhjbdakY78JdBSITsgzdbTQevobecfUsfSfaBJSEcWZ2YC/rEo23ruGk1fKCbr8lvAeze/9BHij25Mfk/90BYKe3geHJVJak/ieI8KuJREfQ4lzEKWQdDTtwaKG3Wa17tFGNXg3/l9IJHCv6yOy0QLvfZ1vTkaXoHvZpkqAehd8DX/yoOsxXCvZrmYj4YndJ+TYFVeLGjC0z1H6J7R361wOhWjRPe/mdnqDZRu9yQqWLOirkPIR3ycJei70y8KMqOgjSGJH+6KP7FtJoI/HISfhMN/SG6Vfw5xVTZ29/eztNiY7ZIXCdqQEPqArQA/bu9lzyABdn54SzdVlckQ9a607ue7Pe6fgvlu4v9EX9KRgJ0E97NBmex2piPJVsaeiH5pnxKXOmiOHGXZ0/7m4R9gASH8+aM4gft6xqL435Bmey9UkdDvm2aSJO8y7sPrLH3T9O63CTTWXRs5MTxx04nV72557bQf0fZIG3TPAgn5Kc++ZbATg9SSOWeIwQFeArhIAHS2Rq95ut5brvr6gJyhZy73Fsvr2ukUbfREygSOJ5sx8oKNwtloqn2ow+x7cawJ9Nhoa/lGxnbXFsJqG5md60Y2X+Ja0VArQoxnwEsL5uaShxy6pwq+QzTvLDfpCPL8JD/rMWHuLFUWHAmRNM4mjiKDrCMkUt0TvMQu/tA7OyApsEv0m3D6mUFUbvxtBD+06E6k8TYGCU0aJo1uRaRPNE9EYpLTygL6TBegakutHIOhMisqaQ/pr5fetfJNA53Fq+zyOiKJpPJAo6DjYSTgmRY7jUZIPfnNIo8CIigi6joxa9LEKAX2dFehkhOTkq3MWoOSC3mMcVqNTjfcmxsUh4Tgs0Il/0VSktPLY02xZ0v0S+3ZEargS6ETiHuwuJejyW9t5UPOwS3l4yXYGppByUGKgy6qzk11PQGnF0exXdiKQaiCLBXp0XXgtWlYk0F0T4Tr74ZZgo/g/oqg/x8i55aYz07iuILzzHqDAfdMpN6fx/dbCoFPiULVESivHjHHoZtthNfMkGbMoAaOgS6LXPfKlBl3NRdi7F2a84As8fhB2Uq417tg/2mzWmtvZ0+XocH3axz27tny4k9K8qKDvMmd+VHUzmxfsJ/YTWeXqjNMa17ogeMqynR4FXW+JpLUA2Zw+urwxDnTCnnCWxBgngfQBi3PqGiKg565Ym0y4Ww6r9f+cuEwK8lzQuQblAR3xnVwP84E9/OZINLYMoPcuaXVom+thiV3n7fnNhtntanpjp9KS/2fPWyxnmQ8bdEqpfBpNwj5YQ+4KetKwE27rLcPsFSm5kdKKVNsX2E0nTS9HKlcken2uXawkg8ANtyNTIvw0qkMK5YK+o+WIzLPEz8eR8pcGPB70uWUFPSXu+Qbu8V0F14WUpZKZGYfn9nFxsLxLQDwxs3lhf8PsjuKAzr0Y1aOv0VFUNNBxk4usQEfb0AVIodz2+UKL0uE+3mtFKk5kPAVBB47bLBa4iCYjhXLtmGfTYcg7tw1/u/G0CfTIuWhpUTlAl80vvsNz53F14r3LoeYYDzoTTWw1GZ3t1j7HoQylNbYtmt7YvlgN1SLVKLWF+V6gmw7024F3TuK74pXobmOde8i+Y5bu+EMk8qKgfxozTNX2VXHVdpR7gEOcbjOXNgMSt5ORQtEMbQJ603LtOaD3JgC5G+jYXSLQ5Vm4cSZhz71jaao4ngnXl/ID3X94bQ+fyTF4cvnseYtqZPgkTjyXtijAW4Nuglw0EbNWE2FFAj3QJaO1aKc/bVl9j4Ku7Wy1bNetLAh69ACHeM3ErMcsNqKYokEHBK2JlqMyW4ib05DyFZD5g46aSw/6QcD7hktBiT37udS64/5cqp57IJ/ZPqdYd6zoNm8M6CQo/t/TUotkwsEDjqBvQYcVC3QWMFiCnnmZ8KhHStSUnfjSbrlLy0qkYqSH1wySRG2aOBNI3HYihaKgTzKOn/Mtulvs8e+ASyUHOu/iV5RKAnQU6H35hojnp9pzlJJw/owDo4VK9MBWeyCfCQDHO1THKNWl1KbUEYjCdrguwecI6JT+NqBTS5hBJPiMZ/47UlbCXY76Fu55w2Y8net1vC+Qh6D3dFhU+54grPZGqpDIUG1AvxuZ3Lke7YAEElENmm95hPMa7EkA8mRB180xzCgC6D3y/gnY6QL6pxxAL2HV3R/0bLXHALru6abKX0h1VPE/0ew3rLHcMlC1W5wErBtsDw5onNcltRodBimLBHK51aQn3I47TDKC3soMLmY6jkc6TMag5yz9dydSPgKWkoCue+r5nbvdeCHQTe6XhUvvPdCl6m4GoI+SejEgZ4G3AV2/N3122xDNaGyfyHvXea2uA3SkrOQOO5Fht8d4K+8J6E2ATgk2Hd1PojJvrGgG3XbEgFmFwe9NnUVAPgHpdfhjzevPA74LHhxGB1xFgM43oZmBBtx2txsH0EXBgagGKQuVo41OhGZnxJ03c+5CtWvzh/OKZwIxpXCSoHe0iVtRkUH3Gve91+7QhcyL+HccYSL2tCCTuwW81UjFayAcsutBvUYRfvc3m8fTZyAN+nib9jmZwVp/yCujRB8Cunwnz8L95uMkJTrf2g+vsaeBQ7OmiKCb9wK/ho6xaTJmPkStiwA4WzWd5Qm6HpIThb3NUprf6VOa61llczoxt7PbUj2uqidc/mA5AnBVc7ajqwVQDQClN3D9K7thwT4L0HtUq3knW4H9OjRKVr6hvyQMbdLFLUi5CntGPOh8eyL2uoDenQjoeM5WbWijpSOj53I/3NTetUSGdaKiDS2JPgtucqCP5pvDDJAbSqjUBXM6NOjFgZ1wedEu/IJnm7LmtxYGKBD91K5zq0dPGrGRcSdbSnBRPRlRHbKpMa0jTUxEyk1Smlc66Ck97Cf/y7Nc1WHnSttJXNgroHf5ge6/qIVpmelvNbtOgUXMcf/KzJaFVNN3l+Gy7AysjsRBr+X//bJABN6gMwR26ZwOF3i7dYJw0YuW7nmpabeeAfy8wmJK6hVNbUukTV9YbXocPbCRrOd/wSIx1mNmHb9tpkQ/yHCpxJ2DusJNPDIjB3Te0c91zz3LT7+HWU5TYFEXUraK+3PcWrcv47mo5TqmwU4vIui1aP8ENwE4Bikt5wMdzGolobxm6ZZ3RBaLTBxBT1sJGB4yb3LR92XM/LzlsNqvAd0H8pFVog8BPZgBiNe71Ia5fgf3jEXKUomB3oXjnUtJAns7nW1f32Xu/GKAXoM5RyZ1pluYWZwt7VT/M8DMItI3JrxP+KlIJS2q45Y72VqF/dO81+m5aMUF9NMB5QzZ8qpyQM8cEzYNreI07NRMiXuSAN21ytmF3OFBUoIRsJ8ETiBHyYDewjc/M1TXnRRmGNdgzxhUNNixZ2NSkKNbdPvcro0uMCxFAzayBB2ZRwUeybNO3jRd16k0R3rfO91UkCHej5YTdN49wr0jux/YB1JIOSi5fd0JiC/icD+A2FQByL+YAOizuH+i9EwXY5O+MOM4HShcajsS0S46GLdvTiJj4noNnXaWmUy3PnTDVkdj/qYk3AkwDzfag67jXENmqxtimgzy+xI0pYSgz+b5TW5pNDV4bDhuGBD/OypR0FPD6dUWSZudttdCR9B35bsDef/K7FJO69M5feE5xwV03Ooscu3XSg060hmTtbDj8QQy0Jcw5+MeJ7G46hzD0litCwB9cpFAr+Gd47PLtL02h7yTOGpMEnSf2UnTCJBV3pvb4xHdaUagrsVDJwL6AYCeAfTdML8T0PsA/VMkykP5/3zeu1/gdpoEwwowvm2VXBU7vQCSWX1NjKkDkY18QP+/hE60WYWUWZnoXncOe94FjyaQIa0TiBzlDbqt3j2oIfgx6XoOdkqTrcYD9DGAfqSY579JZEqq62wOuXQfaQqWF3SEg4zbPZuVc8JKNGDknobab4bbNiLiInErkItSmOEzeeY/7EFf4pMwr8Zdbw8nDNFdZJA7IGUrEpET6C3DBj2QnU1LBfoFw0yTupkRPUFlK89+y/9PofVoHelLnulvdGaWRJPxE+IPTxl63T1EJHyOzQsq5XDEaMmxjczhEslxI6C3c9/XvBOQspDPMFs9kfvm8I7hDW502io5bCIxHwIFtroC+7wzJJ3xIuUg36r71SPsTP5IQRcMzmysMND7muQkjkoKVBL+FjKgIyRxatAj7u1za26ktJknIGWnfmfYKS3eHGb7/AYH0NFivQ2Xi8bjvyeHES//47FHuW+J3ke4PFEpadKhXf7XkoYqEXTJcQcq5bjkbA920CmJIwb0+QSk6zDbXbS72pGyFd+5SoPuqeAGpOyUyXYcdnShJfbi/Ra9N73f1sXrBVxP2B012JHGYQqVAbFlE/HLXFUlgy76SKQdXQZhN0ce4Z46fqso6LlLREk4e5IIbCPgJszZyQVy5BOWu+LWtzxLgkfxdwtSLqJELyno+G+97+GJvu16OjrXVlJtM3bR1/y+Q7I1u8oHXVbtTMeSn5Qc9qx939aL/02gozqGO/4O2E0LW85tDs0pOugI92zz8Tu6lZ1nnNbD877uNXbVOs+a1rNI+YjvfUHXveV34+6KgDpn8piEy5lc6wFdjSTQdQD/Y0sJSndtByX0OPGcA+jixtZwC6R8Pa5r6LibCejKA/ThRNAa9zALEKB3uoCuazY+6lFMy3zStZTkm6fLB/pAuE9bcCb/b+Za7ualaANuXCbpS+AekaC3cOX/8Vi4vMV0Prn/eepPAPgUvZWTB+jixhTPc4dFLtN+KgPodUTyI7o6R0nEdYjC+5mwNE/f1tShh/7cxEQgL9gJm1m44UWkJyPlUaD9IP8/D+iqAkDXEMn1Ke3+0gCeDadwKHWK3m/uvQC6WKivp/mW8OF3kW9TGRJ4jT7UYBigR9p/fX3h9s51SJURdB3JMumhliGwUcwJr8sVveajqHrXZN2fVmUAXQGJ7MVfQxqQxURDxf0mnst74qcKBF0fCilxnsGeTdxL9szzd9PurdizM4r4KznQd2nvV8+cMUo98D2l1h6NUHlA19dsBMzl/18QCFGYdc6fO2nmBd4/AHsmhudXoSx4CYOudKBVEOgK0PMeMwXoCtBVBYCOGTGTbsIjn0YA6Dp96q2dR3GvQTJ+7r1K+GbTJzPV+F6WAYv4jRDv5qTfQK6P86w/d7fYJEHfad5S9duTx6pHjldq22qlXluu1P3HWID+xlnoQj64sE7t0pYqIughCJH7kvOzfXONNks/E+n9x6ugV0EvEeiRe9gdpjtJn1ylFlUr4t1BtfKbNFIraZj5ExE7Uiph0IF7L7XqH8arrXC6Hb0Csw8d6wH6ph9hwKVKbeWj/zp8tJrRli4V6BKQqgp6FfQKBj06ShE5qBHzwlWVxQJ9aute6upDJ6rn/lWpNd+B05UJgb6Fjx45Tqnfn16vprUEVdCroFdBLwPoH5i7t7rjqMlq+wVK/fdJSj1xchFA/w0GbD5Pqau+NkZ9aF5QBb0KehX00oAO4B9VNx8xVW1fAYPnwCMqKuibzlXqvu8q9SiN/qnNmSroVdCroBcR9AlNA+qn356mtsPhNgrZN88tIeh3i8Hnc/8S2u1Hjlc7zs1UQa+CXgU9GdApvelg+9qMQXDfOj/UeWUEfduPlfrjmZTup09Qkxr7q6BXQa+C7gH6tHl7qyP3nwVvAjAwnw3M5wrYFQT6hh8o9fYqRRf/RDWlub8KehX0KuiWoDe0LVVf+lijevoUpf73VKWe+X6Fgy6WPHwC712s1MVf/YCaPHegCnoV9CroEdB37liqvvAXbeqZ05TaSC34nRXwcplS/9/efUBJUeVrAP8GRAUVxYQLyyKLAiryTMviKiLhcd7u26f73D3PPe76FmXXsKAIkiUMIEMeBpjQOU1PgAEJPsMqmJWsAkaSkocgYZic7vuoWzDFDBPpGbqH//+c7/R0T3VXddX9dd2urrBjLjGOizDoBT7en8v/T74WLTv2F+gC/aKF3r5rL/S5vwvWjtWwVQpwiFDXT2wk0H+cBZS6gfiB1+H6Lv0FukBv9NA73tUHDzzQHZ9HA4U+QgxqF4fpZ8WLjRh6VhLwXQygAoDzuRvYle8r0AV6o4DO5Y57f30/Nsc0we3d7sFxgls5Gjhx6nbURQo93wnkJgLLR7ZmV76fQBfoEQ399rsfxHsvA6uYH2O1i92xAt2AfjAOOBHPkSYAC4e3AXfhE+gCPaKgczi8MzQK7w4DI9CrhL4vlo8nAkUOwPvSz3F1x34CXaCHLfT2XR/G6y82xUoTNyPQawP98Hze2oBjCYAKAhOfaM9dafsIdIFe47S5ox9/f74FO6YAYx9vh+s79Q0J9J/zdTMGXUbIFtgC/fyhF7qAryaBb1C/uecf7YTWt/VtVNCvvrUfFr10LQrigcf6/Rva3dFboNcNutE2Rj7eGWoRsGsW8MYQYPNkQHmAOQNvBjf61hr6Tbf1Q/KzV+C9crgbGPplhN6GDvoQcDIt5BK6ImxF5Do2fZ/QFaEf5XAxhP5rQr+O0JtGDHS+URxdwOHnAioZePFPt6BVhx6hgs70wn3de6DUAfzAcb0z4nLc2KlXvUG/kl9N3hxzA5QfyIzlOKcDn48D+j90F26+82GBXmPoemeTp39/O07OA46fQuOzQjchBYDtM/Q8fu6RW9C6S5/KoPMDoz/sA1vig+FWwA0G/Vrejyd0pYLMQiZoJsC4GR/jYVyM04zLjJfxmX+nmM9LZVL0/wjdReg3RQT0EzY9vq8n8zEOv2smkGsH8mwwDrTv1/Nu/OKOntVC/3xiFJQXyOL4v52iG0h2ArB9GvAN7ysXsCG6BVp1fDgk0K9hFzLhmZ/hywnA/kR90E+hvQz62y8BPzkAtQR4pN894PdAgV4N8nZd++KP/e7A15OIakb10N8hxB3TCX6Cnt9Vo20Q6Jdx+saoZEJMZ9IYn4nXHuI4GJ8Jn+PKcmAZobeISOhfRoO3eq1c4AcKncBmPlbkIeJE/n8iUOLTz+P0Vg3dweHigOVDruB2gt51ht6SXUb3oLZn1t4fjqwGejKQl8QkAL17/god7ux1QaFf2aEXkp5pa0xXiV2vfUb9z6244dZeFwo6vy/3wVOPdINaAWQmgbgiCnqTvXPwDwNcBuNn7A0cm4n+DQN+c5VykUPPnAN8P1VvGPx0fEu06tS/RtCv7/zvmPxke2znc3fGmaiTagNdP76Tj38xAej+a0Lt1qtBobf85UOIfbodp6dso0+JmaIkvdxfeKwLWnfq1VDQ2cvpjT/1vwvKpU9fptIiCvrPC7z4lLg1MvsFjo0JMClYxVxSFfRmhH6Cb0gR3tFGDd3P4Rbo6Zg/4BpC7lvuJHy9MeSPnXB4NnAgVr/uCQ6/+pXzha63mq4dDdz3qx4aez1Dv7rjQ3j1yZuhgsRt07ArQte3KpV5Exj4h9vxs84P1Rv0X3brjb4972UXXW9JPrkgcqC/Owrt2eZy1WKicpnA7GESB/MasxTNqoI+zfhekcR4GII/mYC9jRn6t68CGyfoYQ/N5XCT9fiVGzgYq6epPqCvHAoUePRz7ul+6oqmoYfeqmNPjH3yl1Bv6PdbYqsh9IXm7TLgid91RdsuPUMKvSMv8Njrgfvw6UhwfkYQ9FS0OJKIWQYkN5MUJrjPioY+5bEqoK8di5vUIks3wK67JCXJOMGuygCBXg/QA3oaCxKBrvc8GBLo19/SEy/xOzehEg6TXkfoQcbPeIDvooGHevAXhDt61hW6cTBI317doTKALAewYnBEQW9rrAQDTGKYgK4sSw3ol1YOfQyiCPS3RpfEZsHu0G+wMIBdhN5OoIceek68npZtU6PQuY7Qb+z0IJ59VP/urAJMMFTQ9c9Ycx8HPhoOPNjjHnCtXGPotxL4/ff/Bsqhl5kKRhb0D0ahtXpTO9AmLHGYcTN+xsOkMAsZLxPQ8NQyqFIPYzOG0XGZz003h0k2h/ebr+eoP+jYSwhbZ+A2YwOD0/LGbOb9VKiTLmwS6PUDfWcMsI6olg5ugl/c9ptKobftfD8efbgr2HDwwQgg6a/A/71g4nTXH/TXB+v3ljkb+CYauOvue9Gha0Xonbv1wFuEuXqsfk9bpwK5CfUD/etXjTaipzcl5LmKUYyGG2R8lq3rAQ04LwGlfH8b+D6e2hqDezZPROuDc9CC7a5Z8kA0df4vovZMN5eNx4xLv49PRwPepxDFttZs1wxcw+c9X+zEfrVQj9fyAVN9nMxi3XWvFvq3McQwDW1UhnVjgwW8m1kEle3CaoEeeuhriepfQ8Fx6oZf6gP/r8MGhX2zgHWcjr0zgCNzLxz09a/ov7MXADkJOsqjx1ni5LAvNDD0dLCLrce5NoTZMB7XFgeQfjQOz2+bhl9wupovG4wmbFdRhAhCN5ZLLsP3AUIHoYNgjXZH6CB0VA1dtzVC5/P046tGAd9OxX9yeexRvhpidzBLmNdqAP27acAWjvTNobjJ6FL4LN9LyoNPgyLYlQJdoIcD9B2zYVyLrID3v+fjn40OCXQQOggdhG5MF6Eb7aq+oe+YCePCiccc+Fi5a7hGX4RslVE76FCvoY3RRUmuYiOEX3/POJmIFQJdoIcD9JPx+v66aHDZ630X1oyJTOib9PRfme/Hlmqx+4xsZC6pLXSUevGzPBcOqZRqug9e/YHw0zykC3SBHi7QNzG5ifq12bYvCHTfAGD9OGANH1/HHIjTy7cW0JGfgjXKWw30IFS2DfdlJyGq9tBPgbGjGUH+XaXrF6wA3vqYX2+0I+SAQBfo4QT9mxj9WqUu8BgFwqtf6Gy/enlnO3k/HvhoLLBuPHDEBezj/Q+HARnPAsG/V4S+cgStzLUshwChu6qBTp9cNq0PzALqBD3HARzgSL+YjPv1HkFV7DBgM+PR4Ik8mWki0AV6uEDncoJaBGyZqtvhhnGhgf4Th8mcrw9wWTMOKPYCWS4+nnBu6O+9BHwyktaGAFuiTeixQGEiUMIUn501pfrnvMrdZUBxeq9g+6g79IPzgA9GAh+PxX1qkXUjXTXgvUwKVJ4D7xJ6B4Eu0MMJ+pF5epreH8FxztHztlroL9AJx5PtAHI8+srDJV7994G42kH/eITOBy+DvQzdHpQTKHFUyBrlrMbbQgN68xBBN2babXkeZKpUc81uqwF4j/4OX+xB9vYY/FGgC/RwhM75jeUvAjtnEqsF+uFY4IPRfD7HkefWDnJCBl1nJe8fMqadSSmXVEJ3V+HMzfiNNGdCBD0dOJaIqMx4/KPi9/Zq0DuZgEa/bzaGC3SBHo7Qf+RwxS7iHAPs4+P5Ng4z6ryhtyL0toR+WUXouhu/cphuO/+yZMUg4Lid0D1Vb4g7OR9/zZqHJkzooGfZgK9eNc6i8Ttj5xpPHXb09+luPWHbiepagS7QGyN02plqrBAzzCyH+jEO0TWG/k/guFdDr3RD+BKota/gus9GA0w9QI82GkaPXCeOqKB1P/laxOzWl7ih2HgeE+gCvRFA71bowXoDuN8Ckjl9lNmmmRiR/BSw6Fmd1H/AOOXVxnF6/uoQ7kgg248NVUJfaEBvWb/Q0wkljsMswCCVZt0qX8s4y3buz0nCHEK/RqAL9EiCvmcOBunTO1VxOGsCs5TQYzEqeUAZ9OSBfK2JwNFY4NDssmTOxG8LfdhHV5X2jAuTmES0ZMDUF3S9FX39eGDDBAwwsPvrsna3DO8pO4iAQH4v0AV6GEO/l20y02j3gRpss0pkFhP6rLPX6H7+vXtW2Xy35CPDg6Pyn9XYVrtspgedBoC+8RQ+Ly7NdiGu4tE3dUDvYJKZVKgCJxShdxHoAj0MoF+VbccEA3dqLc42k6RXYAU+rOLGs47Z8cDpFCQB307W39VXj9b58GUgy0/o3kpeP4lZbEBv1eDQVTIRRjOTMET/5m79Ge484io7VS4bzVJCbyXQBXoDQm/Gx5840zX31KLXatMxjw15Pd+JNnzfFuS0Z0FeDvonlUKnrWIHY0crBjoNDH3LFCDfhRZHbfCfvXYPQdxMikZP6HZCv0KgC/R6gN6U0Psqt8Zdp3acxDj0mnd7HGZtnQGUegENvSxZ84ATcWfneCyeL/biqHJV8rpLob6YiE7rxgKWNDz0Ep/G9MNMRBvdHP3JxIT4/NYpjBclhB4k9EsFukA/D+hNCf0ho62mMoE64LZi9EEV6TO0Tt7B8ZWHXmzXa+/g383v62b8A4CDiXhP+aroJSwxoN8YNtA5E3E8gcMlwWvMPGcIsVvRe86gV0R0hNCvEugCvQbQm7KN/r7UjyLjeI5giLYvsa0fdyG4L1ZPU3noxXa9q21woMZtjf9vwEEfofvPMR023cNgu53G5dGcQVnCAPoxG1DowdOFfmSV20IZ+niYZMZvXMvqAKHfJdAFugV6M0JPKw0Qd4Z1zR2aCyqUphntL+64Gzg3dD1fDs4GdsUAu6ednR+moGu+H9+d8/fzRGYZocehDZcHwhK6CuiGzdfUa3d3PWK3nhHHzyTr83wR+uechmYC/aKDfieX037e1ydx9Ie4nZknfOSyX7Ztuh7vuaHr5fHJKMD+JOB76uwkPgHsjcdblU6fh/HiAHMDg7MTZtCPxBsnp2iW5cK7Kq0BT4jvZLxMsu6iFTvxE6EPFeiNEvo1hL5Z/0TLJNfbikWfLTkFu/O9+K+jTqAq6CoF+MyCvAL0PwN7vXib01txWhOY16HeHooOS54FXnuufMITOnI8/F8iOub58KVKLt+dbyD4Piagb4scOE7oIwn9EoEecdBbEvrHRjtaxJzeAOyox96iV/cOjiXi7U2n2nwQqBa6DzhCE/v49/6ZFbNnGm7P9+Nrs9te8dJLqYQ+BO0iDnqBWy/MPXMwTC1GlmUDRMPHdbqbb97yPqG72TAvEehhB70roX+mkk3UqYyv/mAzFU+B7sHabTP0pYtrAv2HOfryTm+9CKwaVjFvDqYLG5afs9ueoA+K2TABt348HPhkxLkSAdAPxxPPaOKZh09UWphcwO70Gj+t7JzehL6ZeP+b0JsL9AaDfh2hB0vd5odwugnbY4HdUOF4i9Kx/YQdHbK9QE2h70ng8h1igV0ZdDdWVFjZJenxFjqxfv0Y3NQooB/i7Y+zgVwnvjB+7vCG0QXtrFfnSGcW6e4UoRcR9HACuJ7Qmwr0OkO/hNDvJPTFJS6zq7qw/PXGL1D8UMUpOHrcjieLFwKEjtpA3zlfH7iSn8Dh5587WXF4osiHTL0toeIOMoVudCF0NCroxT599sxsF75XS0DwYXyBu9ONMtlsmOYhioR+gtCHEfrNhH4ZoUcJdDQh9OaEfiehewhdqaBlvgVPow6TSxJ7oUqTkXtkASauHgfkuIHaQD84H9hPA6tpiEgrzafEe9SFJSpQDnkCw/ZPo3/YcaqtTK0qEQw936fHlefBbuOKlp4wWsNXteZ3Wtb+QbMRp5UdjkvoiojncH78iihaEfqlhB7VCKBHEfqlfE/XEfoDhG4ndL7nc4D2Mu4wWWblgevlVsC2O5vt2Tijcb1Cf5nP9eL1MuiWKxxnEPpsdLsooBf5OQ0cT54Dh/UaMwLAV/Uh4GV8TCoTtCAwr4RTyv8ReSmzldBHEnofQm9P6FcR+uWE3ozQowg9qh6hRxF6FKE3Je7LCP1KQm/Lvx8k9GeIfDNTqi+3XXbZLv2ezFuf5bu0I0yWQWW4GfNiiYU/zcfkNeOIOAmoK/RjLiAzTi+bEme1SSv16LZRvsvO3Lt3FnBRQS9wARuijQXw1Znj3+0Rir6yOM24mYClZ5BhuZ/OLDMfc1iGDZrozA9DQlfFTImdt2ZKzBA6b02QCy1A/ebjycwKcxw+Mxnm427rFUDDpKt9nrusEnkx2+tfVgwBjscD5ws9xwXsJr5906vObprIDSJNBTRu60kqdsxG/010sGVSTdIIoWfbgI9eQVRWEsadaaCORga+tnFY0OmUe6y6/4X5WjeUSWLczEKGwHbOwt2lQd1ezxf6jpn68NY9MRpytdCnon2uF2v0RRU1cvOQWPuO6Wi1KVqgg9BRmoKo/XHofmYrrfsiBy+psnuueyZ6l2gCbcu2CkJHKKBneYDPaOX9YcCHw6vPOy8CmYnwndlhzNyeUaT33uxJ6BDoZdCxf54+++baCWhX5LZ0MW2C/qKPjXEyaTpZiZj+/hi0KHAAm6cAFxy6CylETeRlX8sIvTcfg0CvBPq6CXrhrHgJl3KL51N65wpZy190sZkJMOl6Lc7dZLsX+nWbIXSEEvo39LN9FmD/KxB4umaxcditU+BUgXLnS0zHfxA6BHrNoOPQAqAwYOxZ1anQhV1nDm5wCfpGGevVgTI0cLbfoZ+Nx+U5dr1/fFhBf4LPT4BLpegNm6UB4/YRtRAQ6HWDjiK3fq3ds/Co8p3eq0024EV8bJZTjKXqrnmuE8FVI9HmODEeXgAQOsIS+p/5fCehr4I6ZEPSSRuupiEI9BBA3xerx/3WcEQdjsPgM7uzJgv6iIl1zZ2ucec5sXLzJHQ+4dBtitDRUNDzXMB7HN/iZ4Clz9cuqU8jaq+Nr08LhA6BHnLo+ogoYsc7wzlsHEZz+pR078M83rLf/HNsWLJuPNofStDn/Cd0RCB0CPQGha5n7DGHcULLv3G6ClTa6fPQNcKdcsI9NjNuJqWs13UiHo6PRqP5nrlAoQsgdAh0gV5X6Cj1A3v42BcTcX1uEjJUQHcRjVtXmGBojHExfhN3ECrfji3fTcXDe+frvc0IHYQOgS7QQw0dhA6VynHEAztmoFuBHavPdPNTGE+YIInEuCxH/RF2kQMHD87Fsxsm6j3MSj0AoUOgC/SGhg5CN+7vnA18H4POOUnYqAKW/cUDYXpU1oWO23LqrtQzsLdxfvd+fySiNk3Wh+kSOgS6QA836CB0Y15snAR8OQFXZsZiYLETh84co57GBBnPRbI/efmDbEzUJU6c/CkOMT/M4CGs0/U8KzLnN6FDoAv0SIIOQgehQ6Xo4TeOR3M27gdPJmBHqc8CwHpKJG8EHMpZBpmxTHeK5ai5FP14TiJO7p+NR7+fiqs+n4So08erEzo4LyDQBXpjhG40bkLnfDXnExs/jy9v8c2r6JKbgAnZCdZLRjOLrSetsGyk8ll6Bc6QfDhUfC3rIajJlg+jxeb9gA4xq7xEJGyLwV3bCPrTsWjCYcFhwf+B0EHoIHQIdIF+sUIHoYPQQeggdALR01DgBJYNRpOd03D5rum48avJ6M5hBuUlYGUucRUlaYT6K4EFpfUY8qUmzAwzi80s18exl3otv0sHyl6r0AaVz3FwfFkFiZjB6e63dSraE+iVSwej6cZXEMX5DBXQmPMYQgehg9Ah0AW6QK8ddBA6CB2EbgyTxxA6CB3KzaRZzwjD2PVZYeIeR5R3AJoseQ5Nlv0TTZcPQtPXnkeTxbyf9BedXTHmcwy0Za9F6CB0Y3yErlFO1UAJHYQOgR6B0KWkpKSkpKSkpKSkpKSkpKSkpKSkpKSkpKSkpKSkpKSkpKSkpKSkpKSkpKSkpKSkpKSkpKSkpKSkpKSkpKSkpKSkpKSkpKSkpKSkpKSkpKSkpKSkpKSkpKSkpKSkpKSkpKSkpKSkpKSkpKSkpKSkpKSkpKSkpKSkpKSkpKSkpKSkpKSkpKSkpKSkpKSkpKSkpKSkpKSkpKSkpKSkpKSkpID/B8CpYUrHt8L0AAAAAElFTkSuQmCC;" vertex="1" parent="bSEiM5JxUbokL_L8aSXE-18">
          <mxGeometry x="65" y="110.66" width="90" height="90" as="geometry" />
        </mxCell>
        <mxCell id="bx-VykxBwH8emMBWzooi-12" value="" style="edgeStyle=orthogonalEdgeStyle;rounded=0;orthogonalLoop=1;jettySize=auto;html=1;" edge="1" parent="1">
          <mxGeometry relative="1" as="geometry">
            <mxPoint x="240" y="226" as="sourcePoint" />
            <mxPoint x="300" y="226" as="targetPoint" />
          </mxGeometry>
        </mxCell>
        <mxCell id="bx-VykxBwH8emMBWzooi-17" value="API call" style="edgeLabel;html=1;align=center;verticalAlign=middle;resizable=0;points=[];" vertex="1" connectable="0" parent="bx-VykxBwH8emMBWzooi-12">
          <mxGeometry x="0.1576" y="2" relative="1" as="geometry">
            <mxPoint x="-3" as="offset" />
          </mxGeometry>
        </mxCell>
        <mxCell id="bx-VykxBwH8emMBWzooi-13" value="" style="edgeStyle=orthogonalEdgeStyle;rounded=0;orthogonalLoop=1;jettySize=auto;html=1;" edge="1" parent="1">
          <mxGeometry relative="1" as="geometry">
            <mxPoint x="510" y="230" as="sourcePoint" />
            <mxPoint x="610" y="230" as="targetPoint" />
          </mxGeometry>
        </mxCell>
        <mxCell id="bx-VykxBwH8emMBWzooi-22" value="Database Interaction" style="edgeLabel;html=1;align=center;verticalAlign=middle;resizable=0;points=[];" vertex="1" connectable="0" parent="bx-VykxBwH8emMBWzooi-13">
          <mxGeometry y="2" relative="1" as="geometry">
            <mxPoint as="offset" />
          </mxGeometry>
        </mxCell>
        <mxCell id="bx-VykxBwH8emMBWzooi-21" value="" style="endArrow=classic;html=1;rounded=0;" edge="1" parent="1">
          <mxGeometry width="50" height="50" relative="1" as="geometry">
            <mxPoint x="810" y="230" as="sourcePoint" />
            <mxPoint x="882" y="226" as="targetPoint" />
          </mxGeometry>
        </mxCell>
        <mxCell id="bx-VykxBwH8emMBWzooi-25" value="Deployment" style="edgeLabel;html=1;align=center;verticalAlign=middle;resizable=0;points=[];" vertex="1" connectable="0" parent="bx-VykxBwH8emMBWzooi-21">
          <mxGeometry x="-0.0815" y="1" relative="1" as="geometry">
            <mxPoint as="offset" />
          </mxGeometry>
        </mxCell>
        <mxCell id="bx-VykxBwH8emMBWzooi-26" value="&lt;h1 style=&quot;margin-top: 0px;&quot;&gt;React.js&lt;/h1&gt;&lt;div&gt;library used to create user interaces utilizing single page application design&lt;/div&gt;&lt;p&gt;Pros:&lt;/p&gt;&lt;p&gt;component based arch which promotes code reusability&lt;/p&gt;&lt;p&gt;seo friendly(server side rendering)&lt;/p&gt;&lt;p&gt;good support from meta&lt;/p&gt;&lt;p&gt;improved virtual dom performance&lt;/p&gt;&lt;p&gt;Cons:&lt;/p&gt;&lt;p&gt;learning curve for jsx&lt;/p&gt;&lt;p&gt;state management can be complex&lt;/p&gt;&lt;p&gt;&lt;br&gt;&lt;/p&gt;" style="text;html=1;whiteSpace=wrap;overflow=hidden;rounded=0;" vertex="1" parent="1">
          <mxGeometry x="60" y="760" width="180" height="600" as="geometry" />
        </mxCell>
        <mxCell id="bx-VykxBwH8emMBWzooi-27" value="&lt;h1 style=&quot;margin-top: 0px;&quot;&gt;Express.js&lt;/h1&gt;&lt;div&gt;node.js application framework&lt;/div&gt;&lt;div&gt;used to build rest apis&lt;/div&gt;&lt;p&gt;Pros:&lt;/p&gt;&lt;p&gt;light weight and flexible routing&lt;/p&gt;&lt;p&gt;small learning to curve to use&lt;/p&gt;&lt;p&gt;extensive middle ware features&lt;/p&gt;&lt;p&gt;Supports Templating Engines&lt;/p&gt;&lt;p&gt;Cons:&lt;/p&gt;&lt;p&gt;need to import libraries for more complex features&lt;/p&gt;" style="text;html=1;whiteSpace=wrap;overflow=hidden;rounded=0;" vertex="1" parent="1">
          <mxGeometry x="310" y="760" width="180" height="690" as="geometry" />
        </mxCell>
        <mxCell id="bx-VykxBwH8emMBWzooi-28" value="&lt;h1 style=&quot;margin-top: 0px;&quot;&gt;PostgreSQL&lt;/h1&gt;&lt;div&gt;&lt;span style=&quot;background-color: transparent; color: light-dark(rgb(0, 0, 0), rgb(255, 255, 255));&quot;&gt;rdbms used to manage structured data&amp;nbsp;&lt;/span&gt;&lt;/div&gt;&lt;p&gt;Pros:&lt;/p&gt;&lt;p&gt;strict structure prevent errors&lt;/p&gt;&lt;p&gt;retrieve large amount of quickly&lt;/p&gt;&lt;p&gt;scalability to large data&lt;/p&gt;&lt;p&gt;provides data access control&lt;/p&gt;&lt;p&gt;&lt;span style=&quot;background-color: transparent; color: light-dark(rgb(0, 0, 0), rgb(255, 255, 255));&quot;&gt;Cons:&lt;/span&gt;.&lt;/p&gt;&lt;p&gt;limited flexibility for unstructured data&lt;/p&gt;&lt;p&gt;lack of real time analytics (use kafka)&lt;/p&gt;" style="text;html=1;whiteSpace=wrap;overflow=hidden;rounded=0;" vertex="1" parent="1">
          <mxGeometry x="610" y="760" width="180" height="620" as="geometry" />
        </mxCell>
        <mxCell id="bx-VykxBwH8emMBWzooi-29" value="&lt;h1 style=&quot;margin-top: 0px;&quot;&gt;AWS&lt;/h1&gt;&lt;div&gt;services provided by aws to deploy application onto cloud&lt;/div&gt;&lt;div&gt;&lt;span style=&quot;background-color: transparent; color: light-dark(rgb(0, 0, 0), rgb(255, 255, 255));&quot;&gt;&amp;nbsp;&lt;/span&gt;&lt;/div&gt;&lt;p&gt;Pros:&lt;/p&gt;&lt;p&gt;multiple different services to deploy applications&lt;/p&gt;&lt;p&gt;offers security and compliance features&lt;/p&gt;&lt;p&gt;cost efficient using only the necessary resources needed&lt;/p&gt;&lt;p&gt;Cons:&lt;/p&gt;&lt;p&gt;steep learning curve&lt;/p&gt;&lt;p&gt;complex structures&lt;/p&gt;&lt;p&gt;may get unexpected cost&lt;/p&gt;" style="text;html=1;whiteSpace=wrap;overflow=hidden;rounded=0;" vertex="1" parent="1">
          <mxGeometry x="890" y="760" width="180" height="670" as="geometry" />
        </mxCell>
      </root>
    </mxGraphModel>
  </diagram>
</mxfile>
